<svg xmlns="http://www.w3.org/2000/svg" width="44" height="44" viewBox="0 0 44 44">
  <g id="mymy-logo" transform="translate(6.143 3)">
    <rect id="Rectangle_156" data-name="Rectangle 156" width="44" height="44" rx="2" transform="translate(-6.143 -3)" fill="#fe0957"/>
    <g id="Group_2" data-name="Group 2" transform="translate(13.246 17.803)">
      <path id="Subtraction_4" data-name="Subtraction 4" d="M.842,3.512h0L.607,1.652a.849.849,0,0,1-.435-.3A.843.843,0,0,1,.843,0a.843.843,0,0,1,.671,1.353.849.849,0,0,1-.435.3ZM.971.315a.152.152,0,1,0,.152.152A.152.152,0,0,0,.971.315Z" transform="translate(0 0)" fill="#fff"/>
    </g>
    <path id="Path_53" data-name="Path 53" d="M88.219,138.662l12.584,2.155H84.529l-.012-17.5.012-17.5H100.8l-12.584,2.155Z" transform="translate(-76.66 -103.817)" fill="#fff"/>
  </g>
</svg>
