<svg xmlns="http://www.w3.org/2000/svg" xmlns:xlink="http://www.w3.org/1999/xlink" width="558" height="398.314" viewBox="0 0 558 398.314">
  <defs>
    <linearGradient id="linear-gradient" y1="0.5" x2="1" y2="0.5" gradientUnits="objectBoundingBox">
      <stop offset="0" stop-color="#f3d038"/>
      <stop offset="0.995" stop-color="#dd4372"/>
    </linearGradient>
    <linearGradient id="linear-gradient-2" x1="0.5" x2="0.5" y2="1" gradientUnits="objectBoundingBox">
      <stop offset="0" stop-color="#dd4372"/>
      <stop offset="1" stop-color="#efd5dd"/>
    </linearGradient>
    <linearGradient id="linear-gradient-3" x1="0.5" y1="0" x2="0.5" y2="1" xlink:href="#linear-gradient"/>
    <linearGradient id="linear-gradient-4" x1="0.488" y1="0.106" x2="0.5" y2="1" gradientUnits="objectBoundingBox">
      <stop offset="0" stop-color="#efdde3"/>
      <stop offset="1" stop-color="#dd4372"/>
    </linearGradient>
    <linearGradient id="linear-gradient-5" x1="0.5" x2="0.5" y2="1" gradientUnits="objectBoundingBox">
      <stop offset="0" stop-color="#fff" stop-opacity="0"/>
      <stop offset="1" stop-color="#2680eb"/>
    </linearGradient>
  </defs>
  <g id="illustration-3" transform="translate(-388 -735.182)">
    <ellipse id="Ellipse_127" data-name="Ellipse 127" cx="242" cy="138.5" rx="242" ry="138.5" transform="translate(425 815)" fill="#253858" opacity="0.02"/>
    <ellipse id="Ellipse_128" data-name="Ellipse 128" cx="279" cy="159.5" rx="279" ry="159.5" transform="translate(388 794)" fill="#253858" opacity="0.03"/>
    <g id="Group_152" data-name="Group 152" transform="translate(474.684 839.148)" opacity="0.4">
      <g id="Group_184" data-name="Group 184" transform="translate(340.489 50.956)">
        <path id="Path_658" data-name="Path 658" d="M578.871,286.634c-.8-.795-1.626-1.584-2.462-2.37C577.244,285.049,578.075,285.837,578.871,286.634Z" transform="translate(-576.409 -284.263)" fill="#dcdcdc"/>
      </g>
      <g id="Group_185" data-name="Group 185" transform="translate(342.951 53.326)">
        <path id="Path_659" data-name="Path 659" d="M579.817,287.65c-.544-.566-1.088-1.134-1.652-1.7C578.729,286.516,579.272,287.083,579.817,287.65Z" transform="translate(-578.165 -285.954)" fill="#dcdcdc"/>
      </g>
      <g id="Group_186" data-name="Group 186" transform="translate(344.602 55.023)">
        <path id="Path_660" data-name="Path 660" d="M581.527,289.5c-.708-.783-1.44-1.562-2.184-2.337C580.087,287.938,580.818,288.717,581.527,289.5Z" transform="translate(-579.343 -287.164)" fill="gray"/>
      </g>
      <g id="Group_187" data-name="Group 187" transform="translate(346.786 57.36)">
        <path id="Path_661" data-name="Path 661" d="M582.445,290.576q-.759-.877-1.543-1.745Q581.687,289.7,582.445,290.576Z" transform="translate(-580.901 -288.831)" fill="gray"/>
      </g>
      <g id="Group_188" data-name="Group 188" transform="translate(252.072 7.705)">
        <path id="Path_662" data-name="Path 662" d="M513.337,253.41c.68.158,1.363.308,2.04.471C514.7,253.718,514.017,253.568,513.337,253.41Z" transform="translate(-513.337 -253.41)" fill="#dcdcdc"/>
      </g>
      <g id="Group_189" data-name="Group 189" transform="translate(232.949 3.943)">
        <path id="Path_663" data-name="Path 663" d="M499.7,250.726c.847.136,1.689.279,2.532.423C501.384,251.006,500.54,250.862,499.7,250.726Z" transform="translate(-499.695 -250.726)" fill="#dcdcdc"/>
      </g>
      <g id="Group_190" data-name="Group 190" transform="translate(222.208 2.409)">
        <path id="Path_664" data-name="Path 664" d="M492.033,249.632c1.472.184,2.94.371,4.4.576C494.973,250,493.5,249.817,492.033,249.632Z" transform="translate(-492.033 -249.632)" fill="#dcdcdc"/>
      </g>
      <g id="Group_191" data-name="Group 191" transform="translate(220.282 2.165)">
        <path id="Path_665" data-name="Path 665" d="M490.659,249.458c.643.076,1.284.164,1.926.244C491.941,249.622,491.3,249.534,490.659,249.458Z" transform="translate(-490.659 -249.458)" fill="gray"/>
      </g>
      <g id="Group_192" data-name="Group 192" transform="translate(207.548 0.929)">
        <path id="Path_666" data-name="Path 666" d="M481.575,248.576c1.647.126,3.293.272,4.936.423C484.868,248.848,483.222,248.7,481.575,248.576Z" transform="translate(-481.575 -248.576)" fill="#dcdcdc"/>
      </g>
      <g id="Group_193" data-name="Group 193" transform="translate(205.104 0.76)">
        <path id="Path_667" data-name="Path 667" d="M479.832,248.456c.816.056,1.629.107,2.443.168C481.461,248.563,480.647,248.512,479.832,248.456Z" transform="translate(-479.832 -248.456)" fill="gray"/>
      </g>
      <g id="Group_194" data-name="Group 194" transform="translate(201.119 0.507)">
        <path id="Path_668" data-name="Path 668" d="M476.989,248.275c1.329.074,2.658.163,3.985.254C479.645,248.438,478.319,248.349,476.989,248.275Z" transform="translate(-476.989 -248.275)" fill="#dcdcdc"/>
      </g>
      <g id="Group_195" data-name="Group 195" transform="translate(198.431 0.372)">
        <path id="Path_669" data-name="Path 669" d="M475.072,248.179c.9.042,1.793.084,2.688.134C476.865,248.263,475.968,248.221,475.072,248.179Z" transform="translate(-475.072 -248.179)" fill="#dcdcdc"/>
      </g>
      <g id="Group_196" data-name="Group 196" transform="translate(191.861 0.125)">
        <path id="Path_670" data-name="Path 670" d="M470.385,248q1.39.038,2.78.087Q471.775,248.042,470.385,248Z" transform="translate(-470.385 -248.003)" fill="gray"/>
      </g>
      <g id="Group_197" data-name="Group 197" transform="translate(188.16 0.05)">
        <path id="Path_671" data-name="Path 671" d="M467.745,247.949q1.85.028,3.7.076Q469.6,247.976,467.745,247.949Z" transform="translate(-467.745 -247.949)" fill="#dcdcdc"/>
      </g>
      <g id="Group_198" data-name="Group 198" transform="translate(185.342 0.016)">
        <path id="Path_672" data-name="Path 672" d="M465.735,247.925c.941.006,1.88.02,2.818.034C467.615,247.945,466.674,247.931,465.735,247.925Z" transform="translate(-465.735 -247.925)" fill="#dcdcdc"/>
      </g>
      <g id="Group_199" data-name="Group 199" transform="translate(174.537 0.036)">
        <path id="Path_673" data-name="Path 673" d="M458.027,248.037c1.441-.039,2.881-.077,4.323-.1C460.908,247.96,459.467,248,458.027,248.037Z" transform="translate(-458.027 -247.939)" fill="#dcdcdc"/>
      </g>
      <g id="Group_200" data-name="Group 200" transform="translate(156.871 0.877)">
        <path id="Path_674" data-name="Path 674" d="M445.425,248.776c.966-.08,1.932-.164,2.9-.237C447.357,248.612,446.391,248.7,445.425,248.776Z" transform="translate(-445.425 -248.539)" fill="gray"/>
      </g>
      <g id="Group_201" data-name="Group 201" transform="translate(150.384 1.421)">
        <path id="Path_675" data-name="Path 675" d="M440.8,249.231c1-.105,2-.21,3.01-.3C442.8,249.022,441.8,249.126,440.8,249.231Z" transform="translate(-440.797 -248.927)" fill="#dcdcdc"/>
      </g>
      <g id="Group_202" data-name="Group 202" transform="translate(143.991 2.095)">
        <path id="Path_676" data-name="Path 676" d="M436.237,249.775q1.516-.191,3.035-.367Q437.752,249.585,436.237,249.775Z" transform="translate(-436.237 -249.408)" fill="gray"/>
      </g>
      <g id="Group_203" data-name="Group 203" transform="translate(137.684 2.904)">
        <path id="Path_677" data-name="Path 677" d="M431.738,250.4c.99-.146,1.985-.282,2.979-.419C433.723,250.122,432.729,250.258,431.738,250.4Z" transform="translate(-431.738 -249.985)" fill="#dcdcdc"/>
      </g>
      <g id="Group_204" data-name="Group 204" transform="translate(134.286 3.323)">
        <path id="Path_678" data-name="Path 678" d="M429.314,250.814c1.131-.181,2.263-.362,3.4-.53C431.575,250.452,430.447,250.633,429.314,250.814Z" transform="translate(-429.314 -250.284)" fill="gray"/>
      </g>
      <g id="Group_205" data-name="Group 205" transform="translate(119.389 5.849)">
        <path id="Path_679" data-name="Path 679" d="M418.687,252.861c1.259-.271,2.529-.522,3.8-.775C421.216,252.34,419.947,252.591,418.687,252.861Z" transform="translate(-418.687 -252.086)" fill="#dcdcdc"/>
      </g>
      <g id="Group_206" data-name="Group 206" transform="translate(104.305 9.511)">
        <path id="Path_680" data-name="Path 680" d="M407.927,255.515c1-.278,2.01-.552,3.021-.817Q409.432,255.1,407.927,255.515Z" transform="translate(-407.927 -254.698)" fill="#dcdcdc"/>
      </g>
      <g id="Group_207" data-name="Group 207" transform="translate(79.187 17.076)">
        <path id="Path_681" data-name="Path 681" d="M390.009,261.776q2.147-.86,4.327-1.681Q392.158,260.915,390.009,261.776Z" transform="translate(-390.009 -260.095)" fill="gray"/>
      </g>
      <g id="Group_208" data-name="Group 208" transform="translate(76.274 18.757)">
        <path id="Path_682" data-name="Path 682" d="M388.054,262.414c.921-.384,1.859-.748,2.79-1.12-.974.39-1.95.775-2.913,1.178C387.975,262.453,388.011,262.432,388.054,262.414Z" transform="translate(-387.931 -261.294)" fill="#dcdcdc"/>
      </g>
      <g id="Group_235" data-name="Group 235" transform="translate(72.122)" style="isolation: isolate">
        <g id="Group_209" data-name="Group 209" transform="translate(140.361 1.352)">
          <path id="Path_683" data-name="Path 683" d="M485.1,248.878c.488.045.98.081,1.469.13C486.076,248.959,485.585,248.924,485.1,248.878Z" transform="translate(-485.096 -248.878)" fill="gray"/>
        </g>
        <g id="Group_210" data-name="Group 210" transform="translate(141.83 1.482)">
          <path id="Path_684" data-name="Path 684" d="M486.144,248.971q3.173.309,6.329.683Q489.315,249.279,486.144,248.971Z" transform="translate(-486.144 -248.971)" fill="#dcdcdc"/>
        </g>
        <g id="Group_211" data-name="Group 211" transform="translate(167.146 5.037)">
          <path id="Path_685" data-name="Path 685" d="M504.2,251.507q1.253.231,2.5.469Q505.455,251.737,504.2,251.507Z" transform="translate(-504.203 -251.507)" fill="#dcdcdc"/>
        </g>
        <g id="Group_212" data-name="Group 212" transform="translate(44.284 6.624)">
          <path id="Path_686" data-name="Path 686" d="M416.559,253.311c.994-.226,1.982-.457,2.983-.672C418.544,252.854,417.551,253.086,416.559,253.311Z" transform="translate(-416.559 -252.639)" fill="gray"/>
        </g>
        <g id="Group_213" data-name="Group 213" transform="translate(41.196 7.296)">
          <path id="Path_687" data-name="Path 687" d="M414.356,253.826c1.025-.244,2.058-.475,3.088-.708C416.413,253.351,415.381,253.582,414.356,253.826Z" transform="translate(-414.356 -253.118)" fill="gray"/>
        </g>
        <g id="Group_214" data-name="Group 214" transform="translate(29.265 10.328)">
          <path id="Path_688" data-name="Path 688" d="M405.845,256.105q1.455-.421,2.919-.824Q407.3,255.685,405.845,256.105Z" transform="translate(-405.845 -255.281)" fill="#dcdcdc"/>
        </g>
        <g id="Group_215" data-name="Group 215" transform="translate(23.413 12.034)">
          <path id="Path_689" data-name="Path 689" d="M401.671,257.387c.952-.3,1.9-.6,2.863-.889C403.575,256.787,402.623,257.087,401.671,257.387Z" transform="translate(-401.671 -256.498)" fill="gray"/>
        </g>
        <g id="Group_216" data-name="Group 216" transform="translate(17.59 13.859)">
          <path id="Path_690" data-name="Path 690" d="M397.517,258.787c.964-.332,1.925-.667,2.9-.987C399.443,258.121,398.48,258.455,397.517,258.787Z" transform="translate(-397.517 -257.8)" fill="gray"/>
        </g>
        <g id="Group_217" data-name="Group 217" transform="translate(14.777 14.846)">
          <path id="Path_691" data-name="Path 691" d="M395.51,259.476c.929-.334,1.874-.649,2.813-.972C397.384,258.827,396.441,259.142,395.51,259.476Z" transform="translate(-395.51 -258.504)" fill="gray"/>
        </g>
        <g id="Group_218" data-name="Group 218" transform="translate(276.207 59.105)">
          <path id="Path_692" data-name="Path 692" d="M583.987,292.452c-.645-.795-1.3-1.587-1.985-2.376Q583.022,291.258,583.987,292.452Z" transform="translate(-582.002 -290.076)" fill="#dcdcdc"/>
        </g>
        <g id="Group_219" data-name="Group 219" transform="translate(279.601 63.249)">
          <path id="Path_693" data-name="Path 693" d="M586.219,295.453c-.584-.81-1.176-1.618-1.8-2.421C585.044,293.834,585.633,294.643,586.219,295.453Z" transform="translate(-584.423 -293.032)" fill="#dcdcdc"/>
        </g>
        <g id="Group_220" data-name="Group 220" transform="translate(289.851 80.214)">
          <path id="Path_694" data-name="Path 694" d="M592.415,306.787c-.228-.551-.438-1.1-.68-1.653C591.979,305.682,592.187,306.236,592.415,306.787Z" transform="translate(-591.735 -305.134)" fill="gray"/>
        </g>
        <g id="Group_221" data-name="Group 221" transform="translate(290.531 81.866)">
          <path id="Path_695" data-name="Path 695" d="M593.3,309.01c-.332-.9-.7-1.8-1.076-2.7C592.593,307.212,592.966,308.109,593.3,309.01Z" transform="translate(-592.22 -306.313)" fill="#dcdcdc"/>
        </g>
        <g id="Group_222" data-name="Group 222" transform="translate(291.608 84.563)">
          <path id="Path_696" data-name="Path 696" d="M593.644,310.166c-.216-.644-.421-1.288-.656-1.929C593.224,308.879,593.429,309.522,593.644,310.166Z" transform="translate(-592.988 -308.237)" fill="#dcdcdc"/>
        </g>
        <g id="Group_223" data-name="Group 223" transform="translate(292.264 86.492)">
          <path id="Path_697" data-name="Path 697" d="M594.238,312.063c-.24-.819-.509-1.634-.782-2.45C593.729,310.429,594,311.245,594.238,312.063Z" transform="translate(-593.456 -309.613)" fill="#dcdcdc"/>
        </g>
        <g id="Group_224" data-name="Group 224">
          <path id="Path_698" data-name="Path 698" d="M626.361,279.112c.232.135.471.273.7.409.3.177.518.3.74.433l.76.451c.33.2.545.327.761.457.545.329,1,.6,1.445.883.291.179.508.314.722.447l.726.457.743.473.718.461.662.43.692.456.709.471.709.478c.482.327.911.62,1.336.914l.677.472c.272.189.481.338.689.485.681.482,1.334.953,1.972,1.422l.632.468.648.482c49.486,37.2,50.959,88.88,4.273,126.757-3.671,2.979-11.073,3.356-15.562.764-3.473-2-3.973-5.124-1.316-7.469,37.621-30.545,40.253-70.849,8.219-102.7-2.652-2.551-3.444-3.277-4.25-3.994-3.714-3.164-4.138-3.509-4.569-3.854-10.961-7.858-11.17-7.993-11.382-8.128-5.38-3.282-5.616-3.419-5.855-3.556l-.716-.411c-5.68-3.094-5.916-3.214-6.153-3.338-13.959-6.447-14.524-6.68-15.094-6.91-6.615-2.547-7.63-2.914-8.649-3.273-58.316-19.547-127.879-17.89-180.134,3.861-4.381,1.682-9.767,1.4-13.235-.6-4.494-2.595-3.868-6.882,1.264-9.019,54.042-22.505,124.547-25.9,183.734-10.18l.918.245c.316.086.613.165.918.249.92.251,1.822.5,2.728.761l.9.26.908.263c.945.278,1.835.544,2.712.812l.878.271c.374.115.648.2.927.289l.91.286c.58.185,1.144.367,1.714.552l.9.3.9.3.918.308c.3.1.577.2.848.29.33.114.592.2.857.3,2.167.765,2.423.857,2.682.95.315.114.587.213.855.311.306.112.57.209.837.308.356.132.617.229.873.325l.886.334c.617.234,1.161.444,1.7.652.331.129.588.228.841.329,2.1.838,2.354.941,2.6,1.042,1.139.47,1.381.569,1.626.672,1.235.52,1.476.622,1.72.727l.856.369c3.659,1.626,3.9,1.737,4.145,1.849.289.132.532.245.771.356.328.152.571.265.813.379l.81.384c1.2.572,1.427.684,1.657.8,1.1.537,1.326.651,1.556.765,1.182.592,1.4.705,1.632.822l.817.418.747.387.767.4c.355.186.579.306.8.425l.8.43c.568.307,1.044.566,1.52.828l.768.425.781.439c.341.192.566.32.788.447Z" transform="translate(-384.969 -247.913)" fill="url(#linear-gradient)"/>
        </g>
        <g id="Group_225" data-name="Group 225" transform="translate(295.47 102.29)">
          <path id="Path_699" data-name="Path 699" d="M595.879,322.934c-.03-.684-.086-1.367-.136-2.052C595.8,321.566,595.851,322.252,595.879,322.934Z" transform="translate(-595.743 -320.882)" fill="#dcdcdc"/>
        </g>
        <g id="Group_226" data-name="Group 226" transform="translate(295.634 106.874)">
          <path id="Path_700" data-name="Path 700" d="M595.865,324.152c0,.642.015,1.284,0,1.925C595.88,325.435,595.865,324.793,595.865,324.152Z" transform="translate(-595.86 -324.152)" fill="#dcdcdc"/>
        </g>
        <g id="Group_227" data-name="Group 227" transform="translate(294.746 113.653)">
          <path id="Path_701" data-name="Path 701" d="M595.227,332.88c.223-1.3.4-2.594.543-3.891C595.627,330.288,595.452,331.584,595.227,332.88Z" transform="translate(-595.227 -328.988)" fill="#dcdcdc"/>
        </g>
        <g id="Group_228" data-name="Group 228" transform="translate(294.355 117.544)">
          <path id="Path_702" data-name="Path 702" d="M594.948,333.676c.13-.638.281-1.274.391-1.912C595.23,332.4,595.078,333.038,594.948,333.676Z" transform="translate(-594.948 -331.764)" fill="#dcdcdc"/>
        </g>
        <g id="Group_229" data-name="Group 229" transform="translate(292.567 124.049)">
          <path id="Path_703" data-name="Path 703" d="M593.672,338.7c.244-.765.461-1.532.676-2.3C594.133,337.171,593.916,337.938,593.672,338.7Z" transform="translate(-593.672 -336.404)" fill="#dcdcdc"/>
        </g>
        <g id="Group_230" data-name="Group 230" transform="translate(289.113 132.857)">
          <path id="Path_704" data-name="Path 704" d="M591.208,344.884q.519-1.1,1-2.2C591.889,343.422,591.554,344.153,591.208,344.884Z" transform="translate(-591.208 -342.687)" fill="#dcdcdc"/>
        </g>
        <g id="Group_231" data-name="Group 231" transform="translate(285.719 139.368)">
          <path id="Path_705" data-name="Path 705" d="M588.787,349.424c.411-.694.793-1.394,1.179-2.092C589.58,348.03,589.2,348.73,588.787,349.424Z" transform="translate(-588.787 -347.332)" fill="#dcdcdc"/>
        </g>
        <g id="Group_232" data-name="Group 232" transform="translate(275.222 153.789)">
          <path id="Path_706" data-name="Path 706" d="M581.3,359.489c.557-.623,1.133-1.242,1.667-1.87C582.433,358.247,581.856,358.865,581.3,359.489Z" transform="translate(-581.299 -357.619)" fill="#dcdcdc"/>
        </g>
        <g id="Group_233" data-name="Group 233" transform="translate(267.247 161.79)">
          <path id="Path_707" data-name="Path 707" d="M575.61,365.245c.7-.638,1.4-1.274,2.067-1.918C577.006,363.97,576.308,364.607,575.61,365.245Z" transform="translate(-575.61 -363.327)" fill="gray"/>
        </g>
        <g id="Group_234" data-name="Group 234" transform="translate(262.816 165.671)">
          <path id="Path_708" data-name="Path 708" d="M572.449,367.99c.757-.628,1.506-1.26,2.237-1.9C573.957,366.731,573.207,367.361,572.449,367.99Z" transform="translate(-572.449 -366.095)" fill="gray"/>
        </g>
      </g>
      <g id="Group_236" data-name="Group 236" transform="translate(333.352 167.566)">
        <path id="Path_709" data-name="Path 709" d="M572.9,367.447c-.375.311-.725.63-1.108.939-.148.122-.315.233-.478.346C571.849,368.3,572.385,367.879,572.9,367.447Z" transform="translate(-571.318 -367.447)" fill="#dcdcdc"/>
      </g>
      <g id="Group_237" data-name="Group 237" transform="translate(0 19.935)">
        <path id="Path_710" data-name="Path 710" d="M666.873,411.051a152.543,152.543,0,0,1-18.992,12.989c-71.583,41.6-188.02,41.6-260.071,0S315.377,315,386.96,273.4a194.424,194.424,0,0,1,22.834-11.264c-5.011,2.155-5.6,6.39-1.14,8.962,3.468,2,8.854,2.281,12.9.734a172.674,172.674,0,0,0-20.094,9.936c-63.628,36.977-63.3,96.928.756,133.907s167.543,36.973,231.172,0A135.528,135.528,0,0,0,650.473,404c-2.655,2.347-2.156,5.464,1.316,7.469C656.094,413.956,663.068,413.7,666.873,411.051Z" transform="translate(-333.521 -262.134)" fill="#6c63ff" opacity="0.57"/>
      </g>
      <g id="Group_238" data-name="Group 238" transform="translate(353.519 65.67)">
        <path id="Path_711" data-name="Path 711" d="M586.977,296.539c-.409-.6-.845-1.187-1.273-1.78C586.131,295.352,586.569,295.942,586.977,296.539Z" transform="translate(-585.704 -294.759)" fill="#dcdcdc"/>
      </g>
      <g id="Group_239" data-name="Group 239" transform="translate(356.482 70.046)">
        <path id="Path_712" data-name="Path 712" d="M588.854,299.511c-.33-.546-.693-1.086-1.036-1.63C588.162,298.425,588.526,298.965,588.854,299.511Z" transform="translate(-587.818 -297.881)" fill="#dcdcdc"/>
      </g>
      <g id="Group_240" data-name="Group 240" transform="translate(366.292 93.354)">
        <path id="Path_713" data-name="Path 713" d="M595.238,316.6c-.129-.7-.269-1.4-.422-2.095C594.969,315.206,595.109,315.9,595.238,316.6Z" transform="translate(-594.816 -314.508)" fill="gray"/>
      </g>
      <g id="Group_241" data-name="Group 241" transform="translate(365.939 119.457)">
        <path id="Path_714" data-name="Path 714" d="M594.564,335.622c.2-.829.367-1.663.539-2.494C594.933,333.959,594.769,334.792,594.564,335.622Z" transform="translate(-594.564 -333.128)" fill="#dcdcdc"/>
      </g>
      <g id="Group_242" data-name="Group 242" transform="translate(363.951 126.348)">
        <path id="Path_715" data-name="Path 715" d="M593.146,340.183c.254-.714.508-1.424.738-2.139C593.655,338.759,593.4,339.471,593.146,340.183Z" transform="translate(-593.146 -338.044)" fill="#dcdcdc"/>
      </g>
      <g id="Group_243" data-name="Group 243" transform="translate(363.122 128.487)">
        <path id="Path_716" data-name="Path 716" d="M592.554,341.8c.293-.74.567-1.483.83-2.226C593.121,340.313,592.847,341.054,592.554,341.8Z" transform="translate(-592.554 -339.57)" fill="#dcdcdc"/>
      </g>
      <g id="Group_244" data-name="Group 244" transform="translate(353.512 145.69)">
        <path id="Path_717" data-name="Path 717" d="M585.7,354.165c.56-.774,1.129-1.543,1.656-2.323C586.828,352.622,586.26,353.392,585.7,354.165Z" transform="translate(-585.699 -351.842)" fill="#dcdcdc"/>
      </g>
      <g id="Group_245" data-name="Group 245" transform="translate(351.776 148.013)">
        <path id="Path_718" data-name="Path 718" d="M584.461,355.847c.6-.778,1.168-1.563,1.736-2.348C585.63,354.284,585.063,355.069,584.461,355.847Z" transform="translate(-584.461 -353.499)" fill="#dcdcdc"/>
      </g>
      <g id="Group_246" data-name="Group 246" transform="translate(343.489 157.818)">
        <path id="Path_719" data-name="Path 719" d="M578.549,362.429c.639-.644,1.288-1.287,1.9-1.936C579.837,361.143,579.19,361.784,578.549,362.429Z" transform="translate(-578.549 -360.493)" fill="gray"/>
      </g>
      <g id="Group_247" data-name="Group 247" transform="translate(341.437 159.754)">
        <path id="Path_720" data-name="Path 720" d="M577.085,363.911c.7-.674,1.378-1.355,2.052-2.037C578.463,362.555,577.789,363.237,577.085,363.911Z" transform="translate(-577.085 -361.874)" fill="#dcdcdc"/>
      </g>
    </g>
    <g id="Group_148" data-name="Group 148" transform="translate(406.117 821.667)">
      <g id="Group_364" data-name="Group 364" opacity="0.62">
        <g id="Group_363" data-name="Group 363">
          <path id="Path_828" data-name="Path 828" d="M658.2,275.3a2.01,2.01,0,0,1,.913,1.586l-.045,15.943c0,.583-.413.817-.92.525L637.965,281.7a2.024,2.024,0,0,1-.916-1.584l.045-15.946c0-.583.414-.819.922-.525Z" transform="translate(-637.049 -263.521)" fill="#78adf8"/>
        </g>
      </g>
      <g id="Group_366" data-name="Group 366" transform="translate(15.048 33.443)" opacity="0.27">
        <g id="Group_365" data-name="Group 365">
          <path id="Path_829" data-name="Path 829" d="M665.483,291.48a2.014,2.014,0,0,1,.914,1.584l-.046,15.945c0,.581-.414.817-.92.525l-20.188-11.656a2.019,2.019,0,0,1-.916-1.586l.045-15.943c0-.583.414-.819.922-.525Z" transform="translate(-644.328 -279.698)" fill="#78adf8"/>
        </g>
      </g>
    </g>
    <g id="Group_149" data-name="Group 149" transform="translate(483.831 907.611)">
      <g id="Group_369" data-name="Group 369" transform="translate(5.321)" opacity="0.62">
        <g id="Group_368" data-name="Group 368">
          <path id="Path_830" data-name="Path 830" d="M261.427,288.522a.713.713,0,0,0-.323.561l.016,5.639c0,.205.146.289.325.185l7.139-4.121a.715.715,0,0,0,.324-.561l-.016-5.638c0-.207-.146-.29-.326-.186Z" transform="translate(-261.104 -284.356)" fill="#78adf8"/>
        </g>
      </g>
      <g id="Group_371" data-name="Group 371" transform="translate(0 11.826)" opacity="0.27">
        <g id="Group_370" data-name="Group 370">
          <path id="Path_831" data-name="Path 831" d="M254.148,304.7a.713.713,0,0,0-.323.561l.016,5.638c0,.206.146.289.325.186l7.139-4.122a.714.714,0,0,0,.324-.56l-.016-5.639c0-.206-.146-.289-.326-.186Z" transform="translate(-253.825 -300.533)" fill="#78adf8"/>
        </g>
      </g>
    </g>
    <g id="Group_150" data-name="Group 150" transform="translate(680.151 793.753)">
      <g id="Group_374" data-name="Group 374" transform="translate(12.409)" opacity="0.62">
        <g id="Group_373" data-name="Group 373">
          <path id="Path_832" data-name="Path 832" d="M302.041,219.66a1.659,1.659,0,0,0-.754,1.308l.038,13.147c0,.481.341.673.759.433l16.647-9.612a1.664,1.664,0,0,0,.754-1.306l-.036-13.149c0-.481-.343-.675-.76-.433Z" transform="translate(-301.287 -209.944)" fill="#78adf8"/>
        </g>
      </g>
      <g id="Group_376" data-name="Group 376" transform="translate(0 27.578)" opacity="0.27">
        <g id="Group_375" data-name="Group 375">
          <path id="Path_833" data-name="Path 833" d="M294.761,235.837a1.658,1.658,0,0,0-.753,1.306l.038,13.149c0,.479.341.673.758.433l16.647-9.612a1.669,1.669,0,0,0,.756-1.307l-.038-13.147c0-.481-.341-.675-.76-.433Z" transform="translate(-294.008 -226.121)" fill="#78adf8"/>
        </g>
      </g>
    </g>
    <g id="Group_142" data-name="Group 142" transform="translate(668.41 1051.411)" style="isolation: isolate">
      <path id="Path_638" data-name="Path 638" d="M297.387,324.595c6.288,3.631,9.348,8.425,9.178,13.181l-3.606-2.083c-.646-3.535-3.316-6.974-8.007-9.683-6.045-3.49-14.166-5.032-22.034-4.629l-3.085-1.781C279.514,318.594,289.876,320.258,297.387,324.595Z" transform="translate(-244.332 -319.316)" fill="#dd4372"/>
      <path id="Path_639" data-name="Path 639" d="M260.679,338.169a.35.35,0,0,1,0,.664,1.266,1.266,0,0,1-1.146,0,.351.351,0,0,1,0-.664A1.261,1.261,0,0,1,260.679,338.169Z" transform="translate(-245.395 -317.428)" fill="#dd4372"/>
      <path id="Path_640" data-name="Path 640" d="M284.664,331.336c4.109,2.372,4.707,6.012,1.783,8.741l-.992-.572c2.412-2.408,1.826-5.548-1.748-7.612a16.915,16.915,0,0,0-15.351,0c-3.284,1.908-4,4.738-2.162,7.056l-1.014.589c-2.339-2.655-1.606-5.982,2.214-8.2C272.147,328.574,279.879,328.574,284.664,331.336Z" transform="translate(-244.936 -318.312)" fill="#dd4372"/>
      <path id="Path_641" data-name="Path 641" d="M303.335,337.94a11.663,11.663,0,0,1-.865,2.533l-2.88-1.662a9.7,9.7,0,0,0,.516-2.734Z" transform="translate(-241.331 -317.626)" fill="#dd4372"/>
      <path id="Path_642" data-name="Path 642" d="M288.418,330.587c3.86,3.4,3.891,7.819.082,11.219l-.372-.216c3.622-3.276,3.592-7.516-.078-10.788Z" transform="translate(-242.495 -318.179)" fill="#dd4372"/>
      <path id="Path_643" data-name="Path 643" d="M281.91,332.569c3.429,1.98,3.448,5.19.041,7.171a13.641,13.641,0,0,1-12.38,0c-3.43-1.98-3.449-5.191-.041-7.171A13.641,13.641,0,0,1,281.91,332.569Zm-11.653,6.772a12.125,12.125,0,0,0,11,0c3.028-1.76,3.012-4.614-.036-6.374a12.125,12.125,0,0,0-11,0c-3.03,1.76-3.013,4.614.036,6.374" transform="translate(-244.619 -318.129)" fill="#dd4372"/>
      <path id="Path_644" data-name="Path 644" d="M264.788,342.187a.351.351,0,0,1,0,.665,1.268,1.268,0,0,1-1.147,0,.352.352,0,0,1,0-.665A1.263,1.263,0,0,1,264.788,342.187Z" transform="translate(-244.98 -317.023)" fill="#dd4372"/>
      <path id="Path_645" data-name="Path 645" d="M293.13,327.546c8.949,5.168,9,13.545.106,18.711s-23.355,5.168-32.3,0-9-13.545-.106-18.712S284.18,322.379,293.13,327.546Zm-30.41,17.673c7.955,4.593,20.81,4.592,28.714,0s7.862-12.04-.093-16.633-20.812-4.593-28.715,0-7.862,12.04.094,16.633" transform="translate(-245.91 -318.876)" fill="#dd4372"/>
      <path id="Path_646" data-name="Path 646" d="M262.254,340.281a.351.351,0,0,1,0,.665,1.27,1.27,0,0,1-1.148,0,.351.351,0,0,1,0-.665A1.263,1.263,0,0,1,262.254,340.281Z" transform="translate(-245.236 -317.215)" fill="#dd4372"/>
      <path id="Path_647" data-name="Path 647" d="M301.817,341.583a15.644,15.644,0,0,1-1.431,1.892l-2.6-1.5a12.983,12.983,0,0,0,1.3-1.972Z" transform="translate(-241.513 -317.229)" fill="#dd4372"/>
      <path id="Path_648" data-name="Path 648" d="M269.227,321.975a34.84,34.84,0,0,0-11.062,3.926c-8.468,4.921-10.24,12.245-5.342,18.193l-2.572,1.494c-6.18-6.8-4.369-15.39,5.46-21.1a38.065,38.065,0,0,1,10.8-4.08Z" transform="translate(-246.668 -319.206)" fill="#dd4372"/>
      <path id="Path_649" data-name="Path 649" d="M287.01,330.286c5.939,3.429,5.97,8.988.071,12.416s-15.5,3.429-21.437,0-5.971-8.988-.07-12.417S281.071,326.856,287.01,330.286Zm-21.057,12.238c5.766,3.329,15.086,3.329,20.816,0s5.7-8.727-.067-12.058-15.088-3.329-20.817,0-5.7,8.729.068,12.059" transform="translate(-245.206 -318.469)" fill="#dd4372"/>
      <path id="Path_650" data-name="Path 650" d="M299.509,344.447a22.763,22.763,0,0,1-2.821,2.24l-2.463-1.421a19.548,19.548,0,0,0,2.753-2.28Z" transform="translate(-241.872 -316.929)" fill="#dd4372"/>
      <path id="Path_651" data-name="Path 651" d="M295.889,348.674c-10.633,4.887-25.538,5.153-36.686.8l2.489-1.445c9.729,3.605,22.476,3.347,31.726-.777Z" transform="translate(-245.404 -316.499)" fill="#dd4372"/>
    </g>
    <g id="Group_605" data-name="Group 605" transform="translate(484.503 735.182)">
      <g id="Group_601" data-name="Group 601" transform="translate(0 83.183)">
        <path id="Path_4624" data-name="Path 4624" d="M520.331,92.716c-1.259-.289-2.241-1.012-4.043-1.278a13.484,13.484,0,0,1-3.98-1.053c-1.364-.613-4.355-4.766-6.645-8.516-2.7-4.424-4.527-10.425-4.711-13.321-.309-4.9-.083-14.74-.346-18.142s-1.639-4.46-3.452-5.3c-2.131-.992-3.837-.55-4.057,4.366s-.327,14.4,1.092,20.956a45.706,45.706,0,0,0,5.674,13.857,53.294,53.294,0,0,0,8.189,9.992c.882.911,1.312,1.806,2.792,3.739a15.059,15.059,0,0,0,5.537,4.582c1.885.771,2.686.75,3.009.438.4-.393.187-.882-.634-1.333a12.4,12.4,0,0,1-3.637-2.53s1.746,1.077,2.848,1.626a12.206,12.206,0,0,0,3.1,1.069c1.04.188,2.155-.919,1.34-1.393s-1.577-.62-3.2-1.462a12.138,12.138,0,0,1-2.4-1.613,22.982,22.982,0,0,0,3.444,1.215,5.121,5.121,0,0,0,2.893.084c.492-.14.929-.976-.163-1.429a18.658,18.658,0,0,1-4.141-1.574c-1.268-.777-2.059-1.5-1.774-1.59s1,.42,2.293.514c1.236.089,2.5-.562,2.5-1.259S521.589,93.005,520.331,92.716Z" transform="translate(-461.167 -22.931)" fill="#ffa8a7"/>
        <path id="Path_4625" data-name="Path 4625" d="M494.609,44.815c-2.009,1.446-2.813,4.2-2.23,12.431S494.092,71.748,496.1,77A42.319,42.319,0,0,0,506.906,93.09a8.627,8.627,0,0,1,4.1-4.533s-5.739-7.874-7.657-12.88-2.014-13.043-2.03-17.58.5-8.691-1.328-11.254C498.233,44.384,495.371,44.267,494.609,44.815Z" transform="translate(-461.558 -22.995)" fill="#e4f2f2"/>
        <g id="Group_581" data-name="Group 581" transform="translate(11.579 19.208)">
          <path id="Path_4626" data-name="Path 4626" d="M492.071,125.9a19.233,19.233,0,0,1-.327,2.4,10.07,10.07,0,0,0-.164,3.723c.236.858,2.339,1.991,3.721,2.1a8.591,8.591,0,0,1,4.4,2.425,7.889,7.889,0,0,0,6.107,1.953c1.9-.313,4.04-.869,4.464-1.666s-.26-1.632-4.417-4.3-6.93-4.269-8.323-6.861Z" transform="translate(-473.505 -1.156)" fill="#2d2979"/>
          <path id="Path_4627" data-name="Path 4627" d="M480.889,129.961c-.419,1.083-1.218,1.69-1,4.534a24.952,24.952,0,0,1-.312,6.305,11.542,11.542,0,0,0,2.018,7,2.954,2.954,0,0,0,5.12-.845,11.886,11.886,0,0,0,.518-7.526c-.676-2.658.223-4.685-.221-6.465a15.325,15.325,0,0,0-1.075-3Z" transform="translate(-479.539 1.009)" fill="#2d2979"/>
          <path id="Path_4628" data-name="Path 4628" d="M480.549,83.634c.095,2.983,1.024,15.935,1.44,22.793s.508,15.261.508,15.261-1.182,4.994-1.947,10.867,0,24.4,0,24.4a4.677,4.677,0,0,0,5.051,0s3.156-14.83,4.619-21.512,1.715-10.534,2.474-14.675c.917-5.013,2.9-28.392,2.9-28.392l.792.044,2.11,26.394a29.614,29.614,0,0,0-1.331,5.992c-.572,4.3.605,25.929.605,25.929a5.238,5.238,0,0,0,5.462-.223S508.5,121.866,508.5,117.5c0-2.882-.494-40.9-.494-40.9Z" transform="translate(-479.199 -25.987)" fill="#7fa8e6"/>
          <path id="Path_4629" data-name="Path 4629" d="M490.422,88.307a36.822,36.822,0,0,0,6.9-3.661,30.439,30.439,0,0,1-3.6,3.265c-1.187.742-.831,21.381-.831,21.381l-1.674-20.941Z" transform="translate(-474.033 -21.916)" fill="#6795d6"/>
          <path id="Path_4630" data-name="Path 4630" d="M486.431,42.99s.333,6.506.19,7.081-2.986,2.482-3.814,3.165,4.5,5.933,7.085,7.121,10.79-1.943,10.934-5.971-1.4-7.409-2.661-7.588S486.431,42.99,486.431,42.99Z" transform="translate(-477.929 -42.99)" fill="#ffa8a7"/>
          <path id="Path_4631" data-name="Path 4631" d="M495.867,50.434c.858-.773-.133-2.479-.723-3.667-2.687-.812-9.96-3.777-9.96-3.777s.071,1.5.117,2.545h0a4.3,4.3,0,0,0,1.739,3.206,11.889,11.889,0,0,0,2.9,1.69C491.009,50.845,493.893,52.209,495.867,50.434Z" transform="translate(-476.682 -42.99)" fill="#f28f8f"/>
        </g>
        <path id="Path_4632" data-name="Path 4632" d="M487.332,50.364s4.718,7.03,11.3,7.691c2.075-2.044,2.265-9.328-.608-11.654,0,0,2.64-2.131,4.447-1.717a9.327,9.327,0,0,1,4.064,5.186,42.464,42.464,0,0,1,2.322,15.051c-.11,6.9.008,27.98.008,27.98s-.926,4.459-6.879,7.776-10.38,3.641-14.419,2.7c-3.333-.777-6.087-1.952-7.235-4.37.3-4.835,2.456-17.456,1.651-23.537s-2.09-10.62-2.423-15.536.647-4.817,3.113-6.57A38.543,38.543,0,0,1,487.332,50.364Z" transform="translate(-467.979 -22.952)" fill="#f3d038"/>
        <path id="Path_4633" data-name="Path 4633" d="M487.678,105.466a34.116,34.116,0,0,0-3.176-2.84c-1.336-.893-2.3-1.328-3.125-2.574-.9-1.349-1.437-5.891-1.9-10.26a42.92,42.92,0,0,1,1.45-14.535c1.775-5.617,5.54-13.2,6.763-16.39s.434-4.73-.842-6.272c-1.5-1.81-4.122-1.706-6.43,2.64A91.217,91.217,0,0,0,473.311,74.2a45.724,45.724,0,0,0-.822,14.952,53.409,53.409,0,0,0,3.113,12.54c.405,1.2.41,2.193.916,4.575a15.084,15.084,0,0,0,3.036,6.515c1.372,1.5,2.105,1.83,2.528,1.687.536-.182.55-.717,0-1.476a12.452,12.452,0,0,1-2.2-3.845s1.117,1.721,1.876,2.69a12.21,12.21,0,0,0,2.337,2.3c.861.617,2.342.093,1.808-.684s-1.158-1.238-2.26-2.691a12.22,12.22,0,0,1-1.476-2.488,22.975,22.975,0,0,0,2.59,2.575,5.113,5.113,0,0,0,2.575,1.316c.506.086,1.259-.48.467-1.36a18.531,18.531,0,0,1-3.064-3.2c-.815-1.245-1.216-2.239-.922-2.2s.723.809,1.853,1.449c1.079.61,2.5.566,2.8-.065S488.69,106.265,487.678,105.466Z" transform="translate(-471.658 -19.483)" fill="#ffa8a7"/>
        <path id="Path_4634" data-name="Path 4634" d="M485.208,51.041c-2.44.422-4.852,3.095-7.929,10.754s-4.8,13.791-5.3,19.388a41.586,41.586,0,0,0,3.135,19.419,8.542,8.542,0,0,1,5.851-2.815s-1.292-9.608-.83-14.949,3.1-12.139,5.07-16.226,4.077-7.376,3.6-10.93S486.131,50.881,485.208,51.041Z" transform="translate(-471.85 -19.716)" fill="#e4f2f2"/>
        <g id="Group_582" data-name="Group 582" transform="translate(29.391 23.277)">
          <path id="Path_4635" data-name="Path 4635" d="M492.632,57.518a37.635,37.635,0,0,0,.566-4.807,15.411,15.411,0,0,0-1.831-5.2V45.692a4.329,4.329,0,0,1,2.408,1.571c1.107,1.36,2.8,4.29,2.384,7.158A8.313,8.313,0,0,1,492.632,57.518Z" transform="translate(-491.367 -45.692)" fill="#e4f2f2"/>
        </g>
        <path id="Path_4636" data-name="Path 4636" d="M492.207,55.075c.478-.928,1.392-4.055,1.837-4.521.867-.286,1.69,1.423,1.69,1.423a4.482,4.482,0,0,1-1.119,2.846A2.074,2.074,0,0,1,492.207,55.075Z" transform="translate(-461.551 -19.972)" fill="#f5fbfb"/>
        <path id="Path_4637" data-name="Path 4637" d="M494.044,50.554c-.446.465-1.36,3.593-1.837,4.521a15.664,15.664,0,0,1,1-1.5c.493-.629,1.083-1.828,2.532-1.595C495.734,51.977,494.912,50.268,494.044,50.554Z" transform="translate(-461.551 -19.972)" fill="#c8dbda"/>
        <path id="Path_4638" data-name="Path 4638" d="M486.413,47.366c.122,1,5.414,4.938,6.676,5.45s3.67,4.51,3.67,4.51a5.24,5.24,0,0,0-4.811,1.879s-7.521-3.164-8.737-8.221c0,0,1.4-2.709,1.61-3.4s.771-1.476,1.556-1.51Z" transform="translate(-466.102 -22.223)" fill="#e4f2f2"/>
        <path id="Path_4639" data-name="Path 4639" d="M489.012,56.225s.557-3.876,1.364-4.23,3.447,2.351,3.447,2.351A7.218,7.218,0,0,1,489.012,56.225Z" transform="translate(-463.167 -19.243)" fill="#f5fbfb"/>
        <path id="Path_4640" data-name="Path 4640" d="M490.376,51.995c-.807.354-1.364,4.23-1.364,4.23a16.339,16.339,0,0,1,2.762-2.131,4.987,4.987,0,0,1,2.049.251S491.182,51.642,490.376,51.995Z" transform="translate(-463.167 -19.243)" fill="#c8dbda"/>
        <path id="Path_4641" data-name="Path 4641" d="M501.376,39.442h0c-.777-5.049-4.414-8.873-9.62-8.585a10.008,10.008,0,0,0-5.1,18.277,10.226,10.226,0,0,0,.805,2.208c1.84,2.155,7.411,3.485,9.01,3.256,2.052-.3,3.167-1.15,4.144-3.4C502.346,47.238,501.8,41.938,501.376,39.442Z" transform="translate(-466.578 -29.928)" fill="#ffa8a7"/>
        <path id="Path_4642" data-name="Path 4642" d="M500.71,35.373a9.919,9.919,0,0,0-10.4-4.313A10.05,10.05,0,0,0,484,35.4c-2,.779-1.943,3.689-1.9,4.593a11.315,11.315,0,0,0,4.649,9.145c-.111-.34-2.735-4.265-.032-5.132a3.29,3.29,0,0,1,.562,2.059s1.34-.127,1.039-1.7c-.084-.438-.163-.84-.233-1.2a4.62,4.62,0,0,1,.768-3.482,4.047,4.047,0,0,0,.711-3.278,13.44,13.44,0,0,0,7.618.59A6.933,6.933,0,0,0,500.71,35.373Z" transform="translate(-466.67 -29.928)" fill="#253858"/>
        <path id="Path_4643" data-name="Path 4643" d="M483.383,35.7s-.623-1.986,1.933-3.924c3.043-2.307,7.322-1.794,11.832,0,2.882,1.144,7.355-.261,6.487,3.046-1.269,4.841-10.624,5.259-14.693,1.884C488.649,36.617,485.7,35.183,483.383,35.7Z" transform="translate(-466.049 -30.235)" fill="#253858"/>
        <path id="Path_4644" data-name="Path 4644" d="M486.593,44.958s-.235.536-1.211.584c-1.827.09-3.965-3.3-2.492-5.608.92-1.44,3-.934,3.67-.074Z" transform="translate(-466.513 -25.786)" fill="#ffa8a7"/>
      </g>
      <g id="Group_593" data-name="Group 593" transform="translate(71.839 114.587)">
        <path id="Path_4663" data-name="Path 4663" d="M240.909,211.54l-.5-.178-.105.638.354-.01Z" transform="translate(-203.235 -187.707)" fill="#0d0d0d"/>
        <g id="Group_592" data-name="Group 592" transform="translate(0 0)">
          <path id="Path_4664" data-name="Path 4664" d="M235.9,213.751l4.416-2.39-.083,8.768-4.333,3.037Z" transform="translate(-203.137 -187.707)" fill="#0d0d0d"/>
          <path id="Path_4665" data-name="Path 4665" d="M243.232,233.251l-1.39-6.8-2.2.532-7.777-13.137c-.056-.089-.4-.021-.509-.008-1.971.237-3.186-1.254-4.917.042a3.915,3.915,0,0,0-.787,5.481l11.985,16.006.34.457a2.976,2.976,0,0,0,5.249-2.574Z" transform="translate(-202.894 -187.75)" fill="#192442"/>
          <path id="Path_4666" data-name="Path 4666" d="M240.612,222.712l-.041-1.314c.508-.275.986-.687,1.038-.923a6.86,6.86,0,0,0-.287-1.93l-.153-3.287s-1.162-.076-1.376.464c-.141.356-4.244,8.161-4.244,8.161l.739,4.041,5.683-1.4Z" transform="translate(-203.13 -187.792)" fill="#f0b387"/>
          <path id="Path_4667" data-name="Path 4667" d="M212.057,320.17s-.638,5.771,0,7.812,1.976,6.664-.574,7.748c0,0-1.945.382-3.954-2.711s-2.232-6.759-2.933-7.812-1.69-1.4-1.882-2.55-.605-2.327,0-2.838a7.944,7.944,0,0,1,2.615-1.5,11.416,11.416,0,0,0,2.965-1.658C208.486,316.439,212.057,320.17,212.057,320.17Z" transform="translate(-202.398 -190.031)" fill="#babfdc"/>
          <path id="Path_4668" data-name="Path 4668" d="M227.128,285.443c.5-1.253-12.143-19.78-13.145-23.787a21.36,21.36,0,0,1,0-8.513l15.9-1.878s9.389,30.421,7.011,36.931-24.983,33.636-24.983,33.636-4.133.011-5.293-5.336c-.009-.041-.018-.083-.025-.125C206.592,316.372,226.627,286.694,227.128,285.443Z" transform="translate(-202.491 -188.587)" fill="#11a8b1"/>
          <path id="Path_4669" data-name="Path 4669" d="M217.859,310.764c-1.145-1.118-2.283-2.23-3.388-3.388a6.628,6.628,0,0,1-.693-.871c-3.975,5.8-7.186,11.086-7.186,11.086.008.042.017.084.025.125,1.16,5.346,5.293,5.336,5.293,5.336s4.205-4.569,8.792-10.443A8.049,8.049,0,0,1,217.859,310.764Z" transform="translate(-202.491 -189.807)" fill="#f0b387"/>
          <path id="Path_4670" data-name="Path 4670" d="M219.718,335.049s3.915,4.288,5.869,5.157,6.311,2.913,5.441,5.545c0,0-1,1.714-4.646,1.181s-6.55-2.785-7.8-2.953-2.169.343-3.158-.27-2.149-1.082-2.132-1.874a7.942,7.942,0,0,1,.6-2.953,11.432,11.432,0,0,0,.712-3.321C214.559,335.269,219.718,335.049,219.718,335.049Z" transform="translate(-202.638 -190.437)" fill="#babfdc"/>
          <path id="Path_4671" data-name="Path 4671" d="M207.631,254.153s-5.214,9.585.065,19.835c0,0,5.575,12.26,4.676,20.055s-1.9,16.59-1.5,19.638,3.768,16.688,3.368,21.535c0,0,3.655,3.362,7.554.341,0,0,1.971-46.711,1.921-51.208s-2.2-19.838-3.8-24.885Z" transform="translate(-202.463 -188.651)" fill="#11a8b1"/>
          <g id="Group_589" data-name="Group 589" transform="translate(0.903 24.388)">
            <path id="Path_4672" data-name="Path 4672" d="M230.447,252.5l-.4-12.449s3.585-1.792,3.785-5.178-2.192-7.469-2.39-9.959,1.528-9.69-.4-11.552c-3.217-3.11-20.316.2-25.395,3.286s-.4,15.437.5,17.229,1.1,20.217,1.1,20.217,1.867,6.175,11.34,6.075S230.447,252.5,230.447,252.5Z" transform="translate(-203.321 -212.111)" fill="#212f56"/>
            <path id="Path_4673" data-name="Path 4673" d="M220.676,242.788s4.057-1.062,5.546-.635a11.543,11.543,0,0,0,3.067.261l1.16,3.69-.173-5.425a7.366,7.366,0,0,1-4.184.625,12.587,12.587,0,0,0-5.371.889s-4.04,1.463-7.116.123A9.536,9.536,0,0,0,220.676,242.788Z" transform="translate(-203.548 -212.742)" fill="#192442"/>
          </g>
          <g id="Group_591" data-name="Group 591" transform="translate(9.006)">
            <path id="Path_4674" data-name="Path 4674" d="M233.657,198.36a16.893,16.893,0,0,1-3.416,9.649l1.608-9.517,1.055-.658Z" transform="translate(-212.018 -187.408)" fill="#001624"/>
            <g id="Group_590" data-name="Group 590" transform="translate(3.221 17.805)">
              <path id="Path_4675" data-name="Path 4675" d="M222.323,206.842l-4.626-1.463c.019,2.775-1.5,5.975-2.8,7.991a7.917,7.917,0,0,0,9.725,4.141s.337-6.444,2.493-8.112Z" transform="translate(-214.901 -205.379)" fill="#f0b387"/>
              <path id="Path_4676" data-name="Path 4676" d="M227.119,209.4a3.523,3.523,0,0,0-.871,1.068,5.831,5.831,0,0,1-1.778.281c-.977.021-1.951-.115-2.924-.1a9.778,9.778,0,0,0-6.621,2.775c-.018-.034-.024-.051-.024-.051,1.295-2.015,2.815-5.215,2.8-7.99l4.627,1.463Z" transform="translate(-214.901 -205.379)" fill="#de9d72"/>
            </g>
            <path id="Path_4677" data-name="Path 4677" d="M226.443,188.693a14.392,14.392,0,0,0-4.435-.776c-5.782-.081-7.757,5.869-7.524,10.95.168,3.667,2.369,7.316,3.581,9.062,0,0,4.034,3.868,7.637,4.77s3.69-.264,4.009-1.033a46.7,46.7,0,0,0,2.223-7.381c.113-1.547-.426-1.709.305-3.16S234.959,191.635,226.443,188.693Z" transform="translate(-211.67 -187.189)" fill="#f0b387"/>
            <path id="Path_4678" data-name="Path 4678" d="M224.59,212.382a24.472,24.472,0,0,1-6.526-4.409c-1.211-1.748-3.413-5.394-3.578-9.061-.151-3.251.6-6.856,2.678-9.01l6.616,4.332a4.549,4.549,0,0,1,1.044,5.3c-.332.669-.829,1.243-1.223,1.883a3.049,3.049,0,0,0-.549,2.126c.13.66.6,1.243.62,1.916.022.826-.62,1.508-.868,2.3a4.313,4.313,0,0,0,1,3.612C224.053,211.715,224.314,212.055,224.59,212.382Z" transform="translate(-211.67 -187.233)" fill="#e7a477"/>
            <path id="Path_4679" data-name="Path 4679" d="M232.916,193.344s-2.549-7.432-12.029-5.984c-8.94,1.365-10.22,15.975-8.775,18.838,0,0,2.732,4.132,9.888,7.72,0,0-5.126-7.951,1.57-16.837l9.241-1.354Z" transform="translate(-211.607 -187.173)" fill="#001624"/>
            <path id="Path_4680" data-name="Path 4680" d="M225.126,192.79s-3.48,1.645-3.229,5.3c0,0,6.474,3.342,11.855.665,0,0,1.7-5.123-1.167-5.631Z" transform="translate(-211.834 -187.297)" fill="#001624"/>
          </g>
          <path id="Path_4681" data-name="Path 4681" d="M236.406,213.933l4.416-2.389-.083,8.768-4.333,3.037Z" transform="translate(-203.149 -187.711)" fill="#333"/>
          <path id="Path_4682" data-name="Path 4682" d="M235.742,217.02s.757-.687,1.444-.376,2.228,5.149,1.293,6.6-1.532,1.306-1.863,1.818a9.421,9.421,0,0,1-2.394,2.316c-.88.5-2.754-4-2.754-4s.954-.679,1.875-1.267C234.229,221.536,232.758,218.4,235.742,217.02Z" transform="translate(-203.04 -187.821)" fill="#f0b387"/>
          <path id="Path_4683" data-name="Path 4683" d="M225.629,227.278l7.585-5.051s1.466-1,2.954,3.357l-7.063,7.308Z" transform="translate(-202.911 -187.944)" fill="#f0b387"/>
          <path id="Path_4684" data-name="Path 4684" d="M240.882,221.137a.579.579,0,0,1-.605-.286,1.706,1.706,0,0,1-.2-.683c-.073-.513-.148-1.028-.177-1.545a4.99,4.99,0,0,1,.205-1.894,2.646,2.646,0,0,1,1.159-1.473,1.54,1.54,0,0,1,.308.725,14.9,14.9,0,0,1,.263,3.727,2.379,2.379,0,0,1-.182.891A1.222,1.222,0,0,1,240.882,221.137Z" transform="translate(-203.226 -187.793)" fill="#f0b387"/>
          <path id="Path_4685" data-name="Path 4685" d="M212.962,324.985c.812,4.454,1.651,9.292,1.446,11.776,0,0,3.655,3.362,7.554.341,0,0,.273-5.615.537-12.954A92.774,92.774,0,0,1,212.962,324.985Z" transform="translate(-202.631 -190.196)" fill="#f0b387"/>
        </g>
        <path id="Path_4686" data-name="Path 4686" d="M229.278,232.286l-7.46,7.167a3.8,3.8,0,0,1-5.371-.04c-.086-.087-.167-.178-.243-.271l-.343-.424L204.838,225.1a4.894,4.894,0,1,1,7.607-6.159c.087.107.173.224.248.336l7.607,11.23,5.1-3.751Z" transform="translate(-202.428 -187.834)" fill="#212f56"/>
        <path id="Path_4687" data-name="Path 4687" d="M236.3,228.165a5.512,5.512,0,0,0,5.683-1.4l-3.212-.536Z" transform="translate(-203.146 -188.035)" fill="#f0b387"/>
        <path id="Path_4688" data-name="Path 4688" d="M214.911,213.582a36.107,36.107,0,0,0,8.439,10.591,14.911,14.911,0,0,0,1.306-9.091l-3.827,1.193-4.385-2.388Z" transform="translate(-202.674 -187.756)" fill="#f0b387"/>
        <path id="Path_4689" data-name="Path 4689" d="M223.941,291.87l1.025-1.559L223.3,309.05Z" transform="translate(-202.859 -189.449)" fill="#0b6d73"/>
        <path id="Path_4690" data-name="Path 4690" d="M223.339,276.451a98.012,98.012,0,0,0-1.058-11.157l1.058-1.547Z" transform="translate(-202.837 -188.863)" fill="#0b6d73"/>
        <path id="Path_4691" data-name="Path 4691" d="M218.18,227.128l2.439,3.6,2.273-1.672-2.117.695Z" transform="translate(-202.746 -188.055)" fill="#192442"/>
        <path id="Path_4692" data-name="Path 4692" d="M204.747,225.132l7.914,9.782-7.418-7.109Z" transform="translate(-202.45 -188.011)" fill="#192442"/>
      </g>
      <g id="Group_600" data-name="Group 600" transform="translate(360.871 203.605)">
        <path id="Path_4693" data-name="Path 4693" d="M245.631,155.378a8.476,8.476,0,0,0,2.236-4.739c.326-2.889-.166-4.739-.772-4.69s-1.23,1.439-1.231,1.582-1.066-3.9-1.985-4.609a1.875,1.875,0,0,0-2.441-.144,3.2,3.2,0,0,0-.87,2.376c.013.926.885,9.462,2.636,10.4Z" transform="translate(-240.568 -142.395)" fill="#f0b387"/>
        <path id="Path_4694" data-name="Path 4694" d="M273.589,184.422l-17.275-8.609-6.393-16.138-2.236-7.448c-3.151-1.836-6.128,1.087-6.128,1.087l1.915,7.306h.007l4.72,19.975a3.9,3.9,0,0,0,1.769,2.429l.434.261,17.883,10.787c.122.074.259.15.389.214a5.51,5.51,0,1,0,4.915-9.863Z" transform="translate(-240.468 -141.462)" fill="#4f221f"/>
        <path id="Path_4695" data-name="Path 4695" d="M289.921,306.665s-.17,1.551,2.324,5.857,1.311,7.5-.667,7.925c-2.208.475-6.4-2.444-6.623-6.215s-1.972-3.431-2.269-4.611a6.514,6.514,0,0,1,.31-2.955Z" transform="translate(-236.318 -125.788)" fill="#11141c"/>
        <path id="Path_4696" data-name="Path 4696" d="M275.892,296.044v4.742a1.31,1.31,0,0,1-1.087,1.3,4.972,4.972,0,0,0-3.7,1.984c-1.572,2.338-6.136,5.385-9.983,2.843a1.811,1.811,0,0,1-.745-1.723,4.553,4.553,0,0,1,1.866-2.615c2.345-1.714,6.605-4.1,6.741-6.534Z" transform="translate(-238.568 -126.862)" fill="#11141c"/>
        <path id="Path_4697" data-name="Path 4697" d="M295.388,190.056c-1-3.386-5.079-7.7-12.791-9.2s-15.2-4.078-16.866,8.388a94.885,94.885,0,0,0,.217,25l-1.324,18.843,10.764,8.526,19.394-4.937-1.1-18.292S295.976,192.04,295.388,190.056Z" transform="translate(-238.136 -138.638)" fill="#4f221f"/>
        <path id="Path_4698" data-name="Path 4698" d="M267.3,304.825l-2.948-66.894q-.066-1.486,0-2.973l.313-6.88c9.948,7.089,29.9,2.654,29.9,2.654l.154.3a46.966,46.966,0,0,1,.83,14.181l-3.519,70.455s-3.423,2.556-7.857-1.173L281.3,273.138l-2.377-28.9-1.181-.272-2.23,28.481.268,32.416S272.331,307.117,267.3,304.825Z" transform="translate(-238.167 -133.732)" fill="#babfdc"/>
        <path id="Path_4699" data-name="Path 4699" d="M277.153,231.689v8.275h0a3.163,3.163,0,0,1-2.672-3.124v-5.4Z" transform="translate(-237.139 -133.392)" fill="#8a8ea3"/>
        <g id="Group_598" data-name="Group 598" transform="translate(33.698 16.905)">
          <g id="Group_595" data-name="Group 595" transform="translate(0.144)">
            <g id="Group_594" data-name="Group 594" transform="translate(3.797 20.523)">
              <path id="Path_4700" data-name="Path 4700" d="M274.938,179.956a3.845,3.845,0,0,0,.241,2.839,7.808,7.808,0,0,1,.629,2.29,5.624,5.624,0,0,1-.172,2.416,5.4,5.4,0,0,0,2.6.446c7.513.109,9.127-5.116,9.127-5.116a10.185,10.185,0,0,1-2.213-6.445l-6.382,2.275Z" transform="translate(-274.751 -176.386)" fill="#f0b387"/>
              <path id="Path_4701" data-name="Path 4701" d="M274.823,181.624a7.953,7.953,0,0,0,4.415,1.325,19.331,19.331,0,0,0,3.265-.436,10.245,10.245,0,0,1,3.279-.193,4.751,4.751,0,0,1,1.581.512,10.192,10.192,0,0,1-2.212-6.446l-6.383,2.275-3.832,1.3A2.771,2.771,0,0,0,274.823,181.624Z" transform="translate(-274.751 -176.386)" fill="#de9d72"/>
            </g>
            <path id="Path_4702" data-name="Path 4702" d="M272.765,181.8l.892.308a6.233,6.233,0,0,0,3.526.16l4.531-1.118a5.811,5.811,0,0,0,2.2-1.07c1.689-1.325,4.9-4.185,6.132-7.653,1.713-4.8,1.536-11.076-4.107-12.667s-14.151.244-14.27,6.548a7.816,7.816,0,0,0,.251,3.136c.488,1.178-.265,2.31-.516,3.075a30.029,30.029,0,0,0,.555,8.4A1.27,1.27,0,0,0,272.765,181.8Z" transform="translate(-271.303 -157.598)" fill="#f0b387"/>
            <path id="Path_4703" data-name="Path 4703" d="M273.852,181.782a6.262,6.262,0,0,0,3.074.021l4.531-1.117a5.8,5.8,0,0,0,2.2-1.07c1.688-1.322,4.893-4.187,6.13-7.652a13.552,13.552,0,0,0,.554-8.107l-7.9,2.191c-.377-.163-.821.293-1.042.641a5.324,5.324,0,0,0-.339,1.511,1.95,1.95,0,0,1-.482,1.107c-.291.276-.759.428-.833.821a1.107,1.107,0,0,0,.283.763,4.091,4.091,0,0,1,.738,1.847,2.159,2.159,0,0,1-.652,1.822c-.848.741-2.252.529-3.089,1.287a2.736,2.736,0,0,0-.741,1.723,13.678,13.678,0,0,1-.233,1.9A3.453,3.453,0,0,1,273.852,181.782Z" transform="translate(-271.045 -157.13)" fill="#e7a477"/>
            <path id="Path_4704" data-name="Path 4704" d="M283.379,175.679c-.4-.265-.467-1.318-.843-1.567a1.451,1.451,0,0,1-.551-1.612,6.251,6.251,0,0,0-1.746-6.265,46.086,46.086,0,0,1,8.944-4.013,10.9,10.9,0,0,1,1.049,7.659,14.737,14.737,0,0,1-2.245,5,16.507,16.507,0,0,1-3.366,3.75S284.453,176.394,283.379,175.679Z" transform="translate(-270.4 -157.295)" fill="#633f25"/>
            <path id="Path_4705" data-name="Path 4705" d="M283.293,176.341a4.629,4.629,0,0,0,3-4.379,2.434,2.434,0,0,0-.126-.812,1.248,1.248,0,0,0-.5-.641,1.208,1.208,0,0,0-.783-.15,2.023,2.023,0,0,0-.757.28,3.063,3.063,0,0,0-1.26,1.444c-.164.391-.244.813-.39,1.211a1.864,1.864,0,0,1-.737,1.006Z" transform="translate(-270.247 -156.473)" fill="#e7a477"/>
            <path id="Path_4706" data-name="Path 4706" d="M283.358,157.769c-7.689-.37-11.566,4.11-11.4,6.706s9.5,2.832,9.5,2.832a4.211,4.211,0,0,0,1.989-.3c1.477-.533,2.923-1.164,4.446-1.549a3.737,3.737,0,0,1,2.246-.039,2.132,2.132,0,0,1,1.148,1.3,8.086,8.086,0,0,0-2.045-6.064A8.884,8.884,0,0,0,283.358,157.769Z" transform="translate(-271.237 -157.747)" fill="#633f25"/>
          </g>
          <path id="Path_4707" data-name="Path 4707" d="M272.238,165.037s-2.486-3.8.135-7.029c0,0,1.7.9,8.033-.128,5.934-.965,3.541,6.879,3.541,6.879l-8.017.663Z" transform="translate(-271.172 -157.742)" fill="#633f25"/>
          <g id="Group_597" data-name="Group 597" transform="translate(0.227 18.924)">
            <g id="Group_596" data-name="Group 596">
              <path id="Path_4708" data-name="Path 4708" d="M271.4,175.163c-.009.9-.016,2.065-.019,2.9a3.651,3.651,0,0,0,1.143,2.745,2.566,2.566,0,0,0,2.311.685c1.525-.535,2.438-1.292,1.965-3.064a4.749,4.749,0,0,0-3.968-3.484A2.925,2.925,0,0,0,271.4,175.163Zm.628,2.246a1.5,1.5,0,0,1,.346-1.048.912.912,0,0,1,.748-.216,1.942,1.942,0,0,1,1.555,1.057,3.371,3.371,0,0,1,.353,1.373c.031.326.08.968-.422.943-.193-.01-.339-.194-.437-.362a3.463,3.463,0,0,1-.221-.581,2.75,2.75,0,0,0-.247-.586c-.1-.16-.257-.341-.442-.328-.414.029-.459.592-.868.6-.174,0-.275-.168-.328-.325A1.391,1.391,0,0,1,272.024,177.409Z" transform="translate(-271.378 -174.934)" fill="#633f25"/>
            </g>
          </g>
          <path id="Path_4709" data-name="Path 4709" d="M282.8,171.084c-.288,1.04-.8,1.107-1.4,3.874s-3.674,3.9-3.674,3.9l-1.373.066-.421,1.351-2.2,1.676c5.946.814,10.524-3.531,10.524-3.531a3.548,3.548,0,0,1-.89-2.254c-.023-1.371-.115-3.209-.115-3.209Z" transform="translate(-270.913 -156.399)" fill="#633f25"/>
        </g>
        <path id="Path_4710" data-name="Path 4710" d="M276.723,242.556,274.687,242l-.206,29.041.633-8.087Z" transform="translate(-237.139 -132.326)" fill="#8a8ea3"/>
        <path id="Path_4711" data-name="Path 4711" d="M288.6,239.812l-3.591-6.192H283.65l4.324,7.475Z" transform="translate(-236.212 -133.172)" fill="#8a8ea3"/>
        <path id="Path_4712" data-name="Path 4712" d="M285.173,234.313l2.926,5.045a5.193,5.193,0,0,0,3.682-3.258l-4.16-3.971A7.977,7.977,0,0,0,285.173,234.313Z" transform="translate(-236.058 -133.323)" fill="#f0b387"/>
        <path id="Path_4713" data-name="Path 4713" d="M306.153,218.2l-.161-.508-4.567-14.4c-.938-3.6-1.86-7.086-2.291-8.267-2.578-7.078-12.73-12.453-12.73-12.453a96.085,96.085,0,0,1,1.8,12.115,5.464,5.464,0,0,0,.11,3.67l.239.6c.135,1.994.247,4.133.313,6.446,0,.152.009.3.012.457l2.317-.226,5.329,13.472-6.534,13.561-2.919,4.474c.094,4.149,4.237,5.063,4.237,5.063l3.577-5,10.743-15.606A3.913,3.913,0,0,0,306.153,218.2Z" transform="translate(-235.934 -138.332)" fill="#4f221f"/>
        <path id="Path_4714" data-name="Path 4714" d="M291.594,212.817l-3.14-13.861,3.614,7.754Z" transform="translate(-235.727 -136.677)" fill="#301413"/>
        <path id="Path_4715" data-name="Path 4715" d="M292.049,223.858l-4.279,8.033-1.25.186Z" transform="translate(-235.922 -134.159)" fill="#301413"/>
        <g id="Group_599" data-name="Group 599" transform="translate(27.005 174.333)">
          <path id="Path_4716" data-name="Path 4716" d="M268.15,303.379l.094-.182a1.693,1.693,0,0,0-.592-2.261,1.669,1.669,0,0,0-2.261.593l-.092.182a1.69,1.69,0,0,0,.592,2.259,1.667,1.667,0,0,0,2.26-.592Z" transform="translate(-265.093 -300.722)" fill="#11141c"/>
        </g>
        <path id="Path_4717" data-name="Path 4717" d="M288.07,183.034l-1.591-1.886s-1.17,5.422-8.6,5.151c0,0-1.806.129-2.094-1.263a3.151,3.151,0,0,0-.385,1.732,1.62,1.62,0,0,0,.12.561,3.144,3.144,0,0,0,2.85,1.7C281.137,189.271,286.792,187.325,288.07,183.034Z" transform="translate(-237.046 -138.477)" fill="#4f221f"/>
      </g>
      <g id="Group_580" data-name="Group 580" transform="translate(123.102 0)">
        <g id="Group_579" data-name="Group 579" transform="translate(0)">
          <g id="Group_574" data-name="Group 574" transform="translate(0)">
            <g id="Icon_material-network-wifi" data-name="Icon material-network-wifi" transform="matrix(0.993, -0.122, 0.122, 0.993, 58.884, 52.061)" opacity="0.8">
              <path id="Path_4718" data-name="Path 4718" d="M13.374.014l13.351,20a20.206,20.206,0,0,1-13.363,5.52A20.172,20.172,0,0,1,0,20.011l13.351-20L13.363,0Z" transform="translate(11.233 0)" fill="#dd4372" opacity="0.5"/>
              <path id="Path_4720" data-name="Path 4720" d="M18.137.018l18.106,26.42c-.7.62-7.675,7.293-18.122,7.293C7.66,33.732.7,27.059,0,26.439L18.106.018,18.122,0Z" transform="translate(6.157 0.429)" fill="#dd4372" opacity="0.5"/>
              <path id="Path_4721" data-name="Path 4721" d="M24.873.025,49.7,35.758c-.961.838-10.526,9.864-24.852,9.864C10.5,45.622.961,36.6,0,35.758L24.831.025,24.852,0Z" transform="translate(0 0.676)" fill="#dd4372" opacity="0.5"/>
              <path id="Path_4719" data-name="Path 4719" d="M0,14.56,10.167.014,10.179,0l.012.014L20.359,14.56a15.641,15.641,0,0,1-10.179,4.071A15.641,15.641,0,0,1,0,14.56Z" transform="translate(14.333 0)" fill="#dd4372"/>
            </g>
            <g id="Icon_material-network-wifi-2" data-name="Icon material-network-wifi" transform="translate(11.007 228.096) rotate(-90)">
              <path id="Path_4721-2" data-name="Path 4721" d="M20.528.02,41.021,29.511c-.793.692-8.687,8.141-20.511,8.141C8.669,37.652.793,30.2,0,29.511L20.493.02,20.511,0Z" transform="translate(0 0)" fill="url(#linear-gradient-2)"/>
            </g>
            <g id="Group_544" data-name="Group 544">
              <path id="Path_4722" data-name="Path 4722" d="M145.511,550.079l-16.993-9.811L128.4,242.736l16.777,9.686Z" transform="translate(15.556 -242.462)" fill="#0052cc"/>
              <path id="Path_4501" data-name="Path 4501" d="M272.314,221.542l16.776,9.686-143.8,80.785-16.777-9.686Z" transform="translate(-128.295 -221.542)" fill="url(#linear-gradient-3)"/>
              <path id="Path_4502" data-name="Path 4502" d="M145.447,549.814,128.454,540l.216-297.062,16.777,9.686Z" transform="translate(-128.454 -162.156)" fill="#0052cc"/>
            </g>
            <g id="Icon_material-network-wifi-3" data-name="Icon material-network-wifi" transform="matrix(-0.087, -0.996, 0.996, -0.087, 116.767, 203.908)">
              <g id="Ellipse_144" data-name="Ellipse 144" transform="translate(25.475 31.871) rotate(95)" fill="#ab3156" stroke="#0d131d" stroke-width="1">
                <ellipse cx="4.574" cy="6.861" rx="4.574" ry="6.861" stroke="none"/>
                <ellipse cx="4.574" cy="6.861" rx="4.074" ry="6.361" fill="none"/>
              </g>
              <path id="Path_4721-3" data-name="Path 4721" d="M18.79,34.446,37.548,7.452C36.823,6.818,29.6,0,18.774,0,7.935,0,.726,6.818,0,7.452L18.758,34.446l.016.019Z" transform="translate(0 0)" fill="url(#linear-gradient-4)"/>
            </g>
          </g>
        </g>
      </g>
      <g id="Group_603" data-name="Group 603" transform="translate(293.765 181.804)">
        <g id="Group_584" data-name="Group 584" transform="translate(14.597 156.899)">
          <path id="Path_4645" data-name="Path 4645" d="M576.8,402.207c-.68,1.97.2,3.625.753,5.3a24.294,24.294,0,0,1,.813,7.65,1.522,1.522,0,0,0,1.982-.107s-.155-7.2,1.76-6.625Z" transform="translate(-576.557 -382.7)" fill="#2d2979"/>
          <path id="Path_4646" data-name="Path 4646" d="M592.782,422c-1.989-2.86-4.677-12.236-5.3-14.4a15.056,15.056,0,0,1-.4-4.254c.093-3.179,3.872-10.646,3.872-10.646l-8.408-1.478L580.6,403.085a11.97,11.97,0,0,1-1.273,3.43,32.949,32.949,0,0,0-2,4.24c-.376,1.345-1.039,2.781,1.148,4.545a28.533,28.533,0,0,1,4.915,4.556c1.423,1.771,1.314,4.121,3.611,6.213s6.653.506,7.488-.208C595.659,424.852,595.26,423.949,592.782,422Z" transform="translate(-576.27 -391.224)" fill="#ffa8a7"/>
          <path id="Path_4647" data-name="Path 4647" d="M592.7,418.036c-4.852,1.179-5.822.533-7.208-4.936-1.058-4.2-2-7.2-3.838-8.812-2.2-1.938-2.437-3.508-2.437-4.867-.478-.039-.727.542-1.041,1.6-.714,2.424-1.536,2.735-1.574,4.467a5.03,5.03,0,0,0,2.417,4.092,8.057,8.057,0,0,1,3.689,4.071c1.154,2.414.917,5.087,1.694,7.337,3.37,2.627,6.984,4.355,12.435,1.847,1.046-2.753,1.925-4.011-3.812-7.2C594.079,416.857,594.54,417.588,592.7,418.036Z" transform="translate(-576.519 -384.863)" fill="#2d2979"/>
        </g>
        <g id="Group_585" data-name="Group 585" transform="translate(11.066 174.895)">
          <path id="Path_4648" data-name="Path 4648" d="M575.79,405.878a10.921,10.921,0,0,0-1.176,6.094c.263,3.355.991,2.664.751,7.138-.151,2.76-1.483,6.261-.043,8.362,2.512,2.511,9.145,2.194,10.529.861a7.463,7.463,0,0,0,.5-3.407c-.169-.922-1.679-1.92-1.916-2.842-.178-.75-.425-1.641-.671-2.892-.792-4-1.68-13.316-1.68-13.316Z" transform="translate(-574.569 -397.846)" fill="#2d2979"/>
          <path id="Path_4649" data-name="Path 4649" d="M580.469,427.071a9.207,9.207,0,0,1-3.03-.513,2.279,2.279,0,0,1-.924-1.714c-.309-2.108.4-4.693-.524-7.629a14.6,14.6,0,0,1-.618-7.827,42.441,42.441,0,0,0,.114-7.909l6.444-.123s-.288,5.284-.261,8.032a128.7,128.7,0,0,0,1.09,14.188c.277,1.416.51,1.966.346,2.563C583.106,426.139,582.563,426.959,580.469,427.071Z" transform="translate(-574.152 -401.356)" fill="#ffa8a7"/>
        </g>
        <g id="Group_587" data-name="Group 587" transform="translate(0 0)">
          <g id="Group_586" data-name="Group 586">
            <path id="Path_4650" data-name="Path 4650" d="M618.5,376.828c-1.494-.295-2.677-1.11-4.812-1.359a15.841,15.841,0,0,1-4.732-1.092c-1.63-.671-5.328-4.788-8.167-9.124a50.548,50.548,0,0,1-6.3-15.959,118.737,118.737,0,0,1-1.277-20.836c.206-4.211-1.627-5.975-3.8-6.9-2.547-1.091-4.4-.275-4.476,5.526s.387,16.516,2.3,24.193a51.458,51.458,0,0,0,6.918,16.062,64.276,64.276,0,0,0,9.925,11.783c1.075,1.041,1.615,2.08,3.43,4.306a17.765,17.765,0,0,0,6.7,5.2c2.252.838,3.2.785,3.563.4.464-.478.188-1.048-.794-1.549a14.568,14.568,0,0,1-4.382-2.844s2.1,1.2,3.417,1.81a14.419,14.419,0,0,0,3.689,1.146c1.234.183,2.506-1.165,1.527-1.693s-1.881-.673-3.822-1.6a14.322,14.322,0,0,1-2.89-1.813,26.979,26.979,0,0,0,4.1,1.305,6.027,6.027,0,0,0,3.412-.009c.577-.183,1.061-1.183-.241-1.678-1.172-.446-2.84-.5-4.941-1.7-1.526-.868-2.483-1.693-2.151-1.808s1.194.458,2.725.519c1.462.059,2.93-.753,2.9-1.575S619.993,377.123,618.5,376.828Z" transform="translate(-555.463 -288.718)" fill="#ffa8a7"/>
            <path id="Path_4651" data-name="Path 4651" d="M573.395,351.945c-2.3,9.856.742,25.465,1.234,33.555s1.208,17.5,1.208,17.5-2.469,8.534-2.35,15.108c.126,6.986,4.107,24.033,4.107,28.1,2.412.471,4.7.432,6.133-.963,0,0,.968-17.447,1.916-25.458.991-8.367,1.323-14.472,2.185-19.363,1.078-6.1,2.886-33.99,2.886-33.99l.95.274,2.216,27.422a40.767,40.767,0,0,0-4.314,9.81c-1.279,4.954-5.4,28.486-5.4,28.486s2.961,3.416,6.518,1.256c1.181-3.659,13.536-32.4,15.211-35.113,1.9-3.087,2.089-39.629-.817-48.243Z" transform="translate(-565.072 -266.073)" fill="#ffa8a7"/>
            <path id="Path_4652" data-name="Path 4652" d="M580.382,316.709s.517,9.27.347,9.948-3.645,1.33-4.62,2.137,5.009,10.225,8.064,11.625,12.527-2.126,13.2-6.831c.62-4.334-2.687-7.716-3.957-8.9a19.571,19.571,0,0,0-2.613-.075l-.265-4.494C586.4,318.792,580.382,316.709,580.382,316.709Z" transform="translate(-562.39 -292.16)" fill="#ffa8a7"/>
            <path id="Path_4653" data-name="Path 4653" d="M580.649,324.113c-2.6.393-5.584,1.774-6,3.2-.481,1.662-1.536,9.5.7,15.47a98.508,98.508,0,0,0,6.147,12.593s9.856,3.08,18.957-2.528a60.492,60.492,0,0,0,.977-8.27c8.4-7.289,1.265-16.326-5.817-23.358a15.222,15.222,0,0,0-2.557-.039,17.461,17.461,0,0,1,3.879,5.247c1.178,2.7.284,5.513-1.982,6.511-3.3,1.456-5.708.572-8.493-2.435C584.564,328.457,583.663,325.811,580.649,324.113Z" transform="translate(-563.962 -288.718)" fill="#3876f3"/>
            <path id="Path_4654" data-name="Path 4654" d="M588.839,323.764l-.215-3.639-2.949-.968-7.207-2.447s.082,1.677.135,2.909c0,0,.295,3.17,5.524,5.641C585.053,325.7,588.544,326.029,588.839,323.764Z" transform="translate(-560.476 -292.16)" fill="#f28f8f"/>
            <path id="Path_4655" data-name="Path 4655" d="M598.08,314.706h0c-.915-5.955-5.2-10.465-11.343-10.126a11.8,11.8,0,0,0-6,21.557,11.887,11.887,0,0,0,.937,2.6c2.172,2.54,7.943,4.167,9.847,4.2,1.65.027,3.075-1.511,4.627-4.064C599.38,323.554,598.586,317.649,598.08,314.706Z" transform="translate(-562.742 -301.587)" fill="#ffa8a7"/>
            <path id="Path_4656" data-name="Path 4656" d="M597.189,309.9a11.7,11.7,0,0,0-12.27-5.085,11.908,11.908,0,0,0-9.321,10.463,11.774,11.774,0,0,0,5.137,10.854c-.131-.4-3.24-5.03-.05-6.053a3.875,3.875,0,0,1,.663,2.428s1.581-.149,1.225-2c-.1-.517-.192-.991-.275-1.417a5.448,5.448,0,0,1,.906-4.106,4.773,4.773,0,0,0,.838-3.867,15.864,15.864,0,0,0,8.987.7A8.189,8.189,0,0,0,597.189,309.9Z" transform="translate(-562.743 -301.587)" fill="#1e2634"/>
            <path id="Path_4657" data-name="Path 4657" d="M582.321,303.8c2.11,1.68,1.336,4.319-.68,6.852s-4.506,4-6.616,2.318-2.188-5.092-.172-7.625S580.209,302.125,582.321,303.8Z" transform="translate(-564.417 -302.887)" fill="#1e2634"/>
            <path id="Path_4658" data-name="Path 4658" d="M580.33,310.952a17.7,17.7,0,0,1,.819,7.467,24.216,24.216,0,0,0,6.772.515c3.36-.3,6.476-.65,8.518-3.115.778-1.842-.892-11.628-9.7-11.012Z" transform="translate(-559.031 -301.419)" fill="#1e2634"/>
            <path id="Path_4659" data-name="Path 4659" d="M580.635,319.783s-.286.591-1.441.648c-2.153.107-4.677-3.9-2.938-6.613,1.085-1.7,3.535-1.1,4.328-.089Z" transform="translate(-562.642 -295.234)" fill="#ffa8a7"/>
            <path id="Path_4660" data-name="Path 4660" d="M581.6,340.918c.636,1.206.734,2.522-1.385,5.593s-6.4,9.716-7.19,14.831c1.693,1.8,4.1,5.488,11.429,6.648,10.543,1.671,18.415-2.963,20.9-5.666A71.356,71.356,0,0,0,603.37,349.9c-1.114-4.811-1.732-6.543-2.178-10.3S581.6,340.918,581.6,340.918Z" transform="translate(-564.701 -275.469)" fill="#3876f3"/>
            <path id="Path_4661" data-name="Path 4661" d="M581.659,343.5c-1.385,2.131-6.453,8.321-8.053,13.744s-1.783,8.923-.415,24.937,2.792,27.7,2.792,27.7,1.966,3.275,7.561,3.963,18.749-2.565,23.965-10.255c0,0,.615-13.094.368-24.63s-3.154-31.294-5.757-38.629c0,0-1.028,3.787-8.71,5.581C586.348,347.556,582,345.4,581.659,343.5Z" transform="translate(-565.283 -273.829)" fill="#b11d4a"/>
            <path id="Path_4662" data-name="Path 4662" d="M587.243,387c-1.24-.883-1.984-2.114-3.829-3.215a15.873,15.873,0,0,1-3.865-2.939c-1.211-1.284-2.892-6.556-3.7-11.675a50.566,50.566,0,0,1,.806-17.138,119.27,119.27,0,0,1,7.394-19.523c1.92-3.755,1.344-6.366-.625-7.852-2.213-1.668-4.339-.95-6.351,3.2-2.533,5.22-6.43,15.216-7.835,23a51.388,51.388,0,0,0-.289,17.486,64.137,64.137,0,0,0,4.209,14.818c.551,1.391.617,2.559,1.357,5.334a17.789,17.789,0,0,0,3.973,7.488c1.708,1.687,2.592,2.028,3.082,1.831.62-.245.6-.877-.09-1.737a14.633,14.633,0,0,1-2.826-4.4s1.419,1.961,2.373,3.057a14.387,14.387,0,0,0,2.893,2.558c1.051.677,2.764-.03,2.089-.913s-1.44-1.387-2.828-3.032a14.314,14.314,0,0,1-1.888-2.842,26.975,26.975,0,0,0,3.206,2.877,6.041,6.041,0,0,0,3.114,1.392c.6.071,1.455-.643.469-1.63-.885-.886-2.382-1.627-3.807-3.579-1.034-1.419-1.566-2.565-1.217-2.533s.9.908,2.268,1.591c1.311.655,2.984.517,3.293-.245S588.487,387.879,587.243,387Z" transform="translate(-568.338 -286.639)" fill="#ffa8a7"/>
          </g>
        </g>
      </g>
    </g>
    <path id="Path_4809" data-name="Path 4809" d="M288.663,347.315a3.136,3.136,0,0,0,0-1.2V216.833H265.29V347.315h.052c.546,3.052,5.57,5.429,11.683,5.411,6.065-.018,11.046-2.39,11.638-5.411Z" transform="translate(423.62 724.838)" opacity="0.57" fill="url(#linear-gradient-5)"/>
  </g>
</svg>
