<svg xmlns="http://www.w3.org/2000/svg" width="70.81" height="22.373" viewBox="0 0 70.81 22.373">
  <defs>
    <style>
      .cls-1 {
        fill: #fff;
      }
    </style>
  </defs>
  <g id="mymy-logo-white" transform="translate(0)">
    <g id="Group_2" data-name="Group 2" transform="translate(3.445 10.102)">
      <path id="Subtraction_4" data-name="Subtraction 4" class="cls-1" d="M.539,2.245h0L.388,1.056A.542.542,0,0,1,.11.865.539.539,0,0,1,.539,0,.539.539,0,0,1,.967.865a.543.543,0,0,1-.278.191ZM.62.2a.1.1,0,1,0,.1.1A.1.1,0,0,0,.62.2Z" transform="translate(0 0)"/>
    </g>
    <path id="Path_53" data-name="Path 53" class="cls-1" d="M86.884,126.813l8.044,1.377h-10.4L84.517,117l.008-11.187h10.4l-8.044,1.377Z" transform="translate(-84.517 -105.817)"/>
    <path id="Path_54" data-name="Path 54" class="cls-1" d="M84.412,280.177H84.4l.008-11.263Z" transform="translate(-84.305 -257.804)"/>
    <path id="Path_55" data-name="Path 55" class="cls-1" d="M84.412,105.817,84.4,117.081,84.4,105.817Z" transform="translate(-84.305 -105.817)"/>
    <path id="Path_5017" data-name="Path 5017" class="cls-1" d="M2.548-9.338H1.12V0H2.548V-4.3h4V0H7.98V-9.338H6.552v3.7h-4Zm7.42,3.444v3.416A2.465,2.465,0,0,0,10.6-.546,2.589,2.589,0,0,0,12.46.182a2.688,2.688,0,0,0,1.918-.728,2.465,2.465,0,0,0,.63-1.932V-5.894H13.636V-2.52a1.7,1.7,0,0,1-.252,1.064,1.115,1.115,0,0,1-.9.406,1.115,1.115,0,0,1-.9-.406A1.7,1.7,0,0,1,11.34-2.52V-5.894Zm9.24,1.26v-1.26h-1.05V-8.05H16.786v2.156h-.574v1.26h.574V0h1.372V-4.634Zm6.356-3.3a3.181,3.181,0,0,0-.714-.938,2.754,2.754,0,0,0-1.876-.63,2.521,2.521,0,0,0-2.73,2.464,2.634,2.634,0,0,0,1.9,2.366l.9.378c.616.252,1.344.644,1.344,1.6a1.5,1.5,0,0,1-1.54,1.568,1.473,1.473,0,0,1-1.218-.56,2.017,2.017,0,0,1-.392-1.19l-1.414.308a3.023,3.023,0,0,0,.784,1.82,2.732,2.732,0,0,0,2.2.938,2.878,2.878,0,0,0,3.01-3c0-1.064-.476-2.044-2.2-2.744l-.938-.378c-.91-.364-1.008-.854-1.008-1.134a1.157,1.157,0,0,1,1.316-1.12A1.489,1.489,0,0,1,24-7.854a1.483,1.483,0,0,1,.42.588ZM27.356,0h1.372V-2.842a2.64,2.64,0,0,1,.28-1.484,1.217,1.217,0,0,1,1.008-.49,1.034,1.034,0,0,1,.77.308,1.42,1.42,0,0,1,.266,1.022V0h1.372V-3.612a2.9,2.9,0,0,0-.378-1.638,2,2,0,0,0-1.736-.8,2.119,2.119,0,0,0-1.582.658v-4.816H27.356ZM38.472-5.208a2.149,2.149,0,0,0-1.75-.84,2.881,2.881,0,0,0-2.87,3.094A2.916,2.916,0,0,0,36.708.182a2.263,2.263,0,0,0,1.764-.8V0h1.372V-5.894H38.472Zm-1.582.392a1.689,1.689,0,0,1,1.666,1.9A1.683,1.683,0,0,1,36.89-1.05a1.72,1.72,0,0,1-1.638-1.876A1.717,1.717,0,0,1,36.89-4.816ZM41.58,0h1.372V-3.052A1.9,1.9,0,0,1,43.33-4.41a1.069,1.069,0,0,1,.854-.322,1.242,1.242,0,0,1,.7.21l.56-1.246a2.035,2.035,0,0,0-1.078-.28,1.585,1.585,0,0,0-.84.2,2.373,2.373,0,0,0-.574.49v-.532H41.58Zm4.648-5.894V0H47.6V-5.894Zm-.2-2.436a.861.861,0,0,0,.882.882A.861.861,0,0,0,47.8-8.33a.861.861,0,0,0-.882-.882A.861.861,0,0,0,46.032-8.33ZM49.322,0h1.372V-2.828c0-1.9.63-1.988,1.246-1.988.518,0,1.078.042,1.078,1.54V0H54.39V-3.612a2.634,2.634,0,0,0-.364-1.638,1.971,1.971,0,0,0-1.736-.8,2.03,2.03,0,0,0-1.6.7v-.546H49.322ZM60.438-5.25a2.217,2.217,0,0,0-1.75-.8,2.681,2.681,0,0,0-2,.812,3.13,3.13,0,0,0-.868,2.282A3.332,3.332,0,0,0,56.7-.616a2.5,2.5,0,0,0,1.946.8,2.135,2.135,0,0,0,1.792-.84v.77A1.941,1.941,0,0,1,59.99,1.6a1.473,1.473,0,0,1-1.078.392,1.4,1.4,0,0,1-1.064-.406,1.952,1.952,0,0,1-.434-.924h-1.33a3.315,3.315,0,0,0,.868,1.834,2.6,2.6,0,0,0,1.932.728,2.994,2.994,0,0,0,1.96-.63c.812-.686.966-1.68.966-3.066V-5.894H60.438Zm-1.582.434a1.457,1.457,0,0,1,1.106.42,1.971,1.971,0,0,1,.56,1.484A1.959,1.959,0,0,1,60-1.526a1.493,1.493,0,0,1-1.148.476,1.605,1.605,0,0,1-1.05-.392,2.023,2.023,0,0,1-.588-1.484,2.049,2.049,0,0,1,.6-1.5A1.42,1.42,0,0,1,58.856-4.816Z" transform="translate(9 16.373)"/>
  </g>
</svg>
