<svg xmlns="http://www.w3.org/2000/svg" width="48" height="48" viewBox="0 0 48 48">
  <defs>
    <style>
      .cls-1 {
        fill: #fc0;
      }

      .cls-2 {
        fill: none;
        stroke: #000;
        stroke-linecap: round;
        stroke-linejoin: round;
      }
    </style>
  </defs>
  <g id="phone" transform="translate(-247 -36)">
    <rect id="bg" class="cls-1" width="48" height="48" rx="24" transform="translate(247 36)"/>
    <path id="Icon_feather-phone-call" data-name="Icon feather-phone-call" class="cls-2" d="M11.337,4.026A3.157,3.157,0,0,1,13.831,6.52M11.337,1.5a5.683,5.683,0,0,1,5.02,5.014m-.631,5.039v1.894a1.263,1.263,0,0,1-1.377,1.263A12.5,12.5,0,0,1,8.9,12.771,12.313,12.313,0,0,1,5.111,8.982,12.5,12.5,0,0,1,3.173,3.508,1.263,1.263,0,0,1,4.429,2.131H6.324A1.263,1.263,0,0,1,7.587,3.217a8.107,8.107,0,0,0,.442,1.774,1.263,1.263,0,0,1-.284,1.332l-.8.8a10.1,10.1,0,0,0,3.789,3.789l.8-.8a1.263,1.263,0,0,1,1.332-.284,8.107,8.107,0,0,0,1.774.442A1.263,1.263,0,0,1,15.726,11.552Z" transform="translate(261.332 52)"/>
  </g>
</svg>
