<svg id="vk" xmlns="http://www.w3.org/2000/svg" width="52" height="52" viewBox="0 0 52 52">
  <g id="Rectangle_18" data-name="Rectangle 18" fill="none" stroke="#fff" stroke-width="1">
    <rect width="52" height="52" rx="26" stroke="none"/>
    <rect x="0.5" y="0.5" width="51" height="51" rx="25.5" fill="none"/>
  </g>
  <path id="Icon_awesome-vk" data-name="Icon awesome-vk" d="M20.852,7.564c.137-.469,0-.814-.661-.814H18a.939.939,0,0,0-.95.626,18.553,18.553,0,0,1-2.688,4.519c-.509.514-.743.679-1.021.679-.137,0-.349-.165-.349-.634V7.564c0-.563-.156-.814-.616-.814H8.941a.53.53,0,0,0-.557.506c0,.533.787.656.869,2.156v3.255c0,.713-.126.844-.4.844-.743,0-2.547-2.752-3.616-5.9C5.017,7,4.805,6.75,4.245,6.75H2.058c-.624,0-.75.3-.75.626,0,.585.743,3.491,3.457,7.331a8.51,8.51,0,0,0,6.672,4.042c1.392,0,1.563-.315,1.563-.859,0-2.505-.126-2.741.572-2.741.323,0,.88.165,2.179,1.429,1.485,1.5,1.73,2.171,2.562,2.171H20.5c.624,0,.939-.315.757-.938-.416-1.309-3.226-4-3.353-4.181-.323-.42-.23-.608,0-.983,0,0,2.673-3.8,2.948-5.085Z" transform="translate(14.692 13.25)" fill="#fff"/>
</svg>
