<svg id="youtube" xmlns="http://www.w3.org/2000/svg" width="52" height="52" viewBox="0 0 52 52">
  <g id="Rectangle_18" data-name="Rectangle 18" fill="none" stroke="#fff" stroke-width="1">
    <rect width="52" height="52" rx="26" stroke="none"/>
    <rect x="0.5" y="0.5" width="51" height="51" rx="25.5" fill="none"/>
  </g>
  <path id="Icon_awesome-youtube" data-name="Icon awesome-youtube" d="M20.632,6.691a2.507,2.507,0,0,0-1.768-1.772C17.3,4.5,11.05,4.5,11.05,4.5s-6.254,0-7.814.419A2.507,2.507,0,0,0,1.468,6.691a26.131,26.131,0,0,0-.418,4.824,26.131,26.131,0,0,0,.418,4.824,2.47,2.47,0,0,0,1.768,1.743c1.56.419,7.814.419,7.814.419s6.254,0,7.814-.419a2.47,2.47,0,0,0,1.768-1.743,26.131,26.131,0,0,0,.418-4.824,26.131,26.131,0,0,0-.418-4.824ZM9,14.475V8.554l5.227,2.961L9,14.475Z" transform="translate(14.95 14.5)" fill="#fff"/>
</svg>
