<svg xmlns="http://www.w3.org/2000/svg" xmlns:xlink="http://www.w3.org/1999/xlink" width="110.856" height="97.455" viewBox="0 0 110.856 97.455">
  <defs>
    <linearGradient id="linear-gradient" x1="0.5" x2="0.5" y2="1" gradientUnits="objectBoundingBox">
      <stop offset="0" stop-color="#f3d038"/>
      <stop offset="0.995" stop-color="#dd4372"/>
    </linearGradient>
  </defs>
  <g id="icons-gears" transform="translate(-485 -900.546)">
    <path id="Icon_ionic-ios-settings" data-name="Icon ionic-ios-settings" d="M72.782,41.713a9.577,9.577,0,0,1,6.144-8.935,37.962,37.962,0,0,0-4.593-11.067,9.706,9.706,0,0,1-3.9.833A9.556,9.556,0,0,1,61.7,9.093,37.847,37.847,0,0,0,50.648,4.5a9.569,9.569,0,0,1-17.87,0A37.962,37.962,0,0,0,21.711,9.093,9.556,9.556,0,0,1,12.97,22.544a9.39,9.39,0,0,1-3.9-.833A38.8,38.8,0,0,0,4.5,32.8a9.566,9.566,0,0,1,6.144,8.935,9.588,9.588,0,0,1-6.125,8.935A37.962,37.962,0,0,0,9.113,61.734,9.56,9.56,0,0,1,21.73,74.352,38.184,38.184,0,0,0,32.8,78.945a9.552,9.552,0,0,1,17.831,0A37.962,37.962,0,0,0,61.7,74.352,9.569,9.569,0,0,1,74.313,61.734a38.184,38.184,0,0,0,4.593-11.067A9.623,9.623,0,0,1,72.782,41.713ZM41.888,57.2A15.505,15.505,0,1,1,57.393,41.694,15.5,15.5,0,0,1,41.888,57.2Z" transform="translate(480.5 896.046)" fill="url(#linear-gradient)"/>
    <path id="Icon_ionic-ios-settings-2" data-name="Icon ionic-ios-settings" d="M47.775,28.085a6.07,6.07,0,0,1,3.894-5.663,24.059,24.059,0,0,0-2.911-7.014,6.151,6.151,0,0,1-2.469.528,6.056,6.056,0,0,1-5.54-8.525,23.987,23.987,0,0,0-7-2.911,6.065,6.065,0,0,1-11.326,0,24.059,24.059,0,0,0-7.014,2.911,6.056,6.056,0,0,1-5.54,8.525A5.951,5.951,0,0,1,7.4,15.408a24.591,24.591,0,0,0-2.9,7.026A6.068,6.068,0,0,1,4.512,33.76a24.059,24.059,0,0,0,2.911,7.014,6.059,6.059,0,0,1,8,8,24.2,24.2,0,0,0,7.014,2.911,6.054,6.054,0,0,1,11.3,0,24.059,24.059,0,0,0,7.014-2.911,6.065,6.065,0,0,1,8-8,24.2,24.2,0,0,0,2.911-7.014A6.1,6.1,0,0,1,47.775,28.085ZM28.2,37.9a9.827,9.827,0,1,1,9.827-9.827A9.824,9.824,0,0,1,28.2,37.9Z" transform="translate(544.187 946.319)" fill="url(#linear-gradient)"/>
  </g>
</svg>
